ply
format ascii 1.0
comment VCGLIB generated
element vertex 464
property double x
property double y
property double z
property double nx
property double ny
property double nz
property uchar red
property uchar green
property uchar blue
property uchar alpha
element face 0
property list uchar int vertex_indices
element edge 870
property int vertex1
property int vertex2
end_header
5.295350677711484 -3.776877000856142e-07 -0 0 0 1 255 255 255 255 
6.446580222212479 9.072931242262776e-05 1.720280347687179 0 0 1 255 255 255 255 
8.410544408262663 0.0007063697858311541 2.282018341364421 0 0 1 255 255 255 255 
10.43215615525477 0.0007990888791128882 2.37700223427276 0 0 1 255 255 255 255 
12.49212977005242 0.0008072415140831595 2.404390035608097 0 0 1 255 255 255 255 
14.55490393181568 0.0008448204976069108 2.31291245188718 0 0 1 255 255 255 255 
16.57116936477629 0.001674113703768765 1.62745563231275 0 0 1 255 255 255 255 
17.73316032228851 -2.921374224243288e-07 0 0 0 1 255 255 255 255 
5.264950745970592 0.5666004221544874 -0 0 0 1 255 255 255 255 
6.41056500268342 0.6901727714301151 1.719633308251992 0 0 1 255 255 255 255 
8.367434837012711 0.9022561130647979 2.266504387625159 0 0 1 255 255 255 255 
10.37799421494149 1.118736477901748 2.352736340912325 0 0 1 255 255 255 255 
12.4263659350305 1.339171909712397 2.377841786824824 0 0 1 255 255 255 255 
14.47789258058776 1.560192725081289 2.296300042626745 0 0 1 255 255 255 255 
16.49197699403677 1.77903596842993 1.639237466959463 0 0 1 255 255 255 255 
17.63135525389829 1.897440962684565 0 0 0 1 255 255 255 255 
5.176593156941315 1.115178965412442 -0 0 0 1 255 255 255 255 
6.30411909049418 1.358435757574945 1.718788983000749 0 0 1 255 255 255 255 
8.233231827823035 1.775748146137444 2.245820055068454 0 0 1 255 255 255 255 
10.21057304820966 2.201655334734098 2.319333839387196 0 0 1 255 255 255 255 
12.22457784541953 2.635573323849618 2.344161481276763 0 0 1 255 255 255 255 
14.24222689742435 3.070786061597869 2.280587130501159 0 0 1 255 255 255 255 
16.23063931868698 3.501591855906833 1.650583907420028 0 0 1 255 255 255 255 
17.33546282386851 3.73452850728788 0 0 0 1 255 255 255 255 
5.025680850330142 1.66831513772119 -0 0 0 1 255 255 255 255 
6.12110934876796 2.032273837375765 1.718200819106386 0 0 1 255 255 255 255 
7.997986597662248 2.656872403247903 2.228860906507983 0 0 1 255 255 255 255 
9.918075335842778 3.294086886204411 2.292569275299114 0 0 1 255 255 255 255 
11.87335592617645 3.943271698998446 2.319539383264261 0 0 1 255 255 255 255 
13.83252715941276 4.594287768462705 2.270911176664657 0 0 1 255 255 255 255 
15.76790611205939 5.23886549688563 1.658305949224333 0 0 1 255 255 255 255 
16.83008215360917 5.586881234032606 0 0 0 1 255 255 255 255 
4.809559426279153 2.215600720210865 -0 0 0 1 255 255 255 255 
5.858127444670677 2.698861310134805 1.718014613197628 0 0 1 255 255 255 255 
7.655977305719952 3.528224369522876 2.221538839574052 0 0 1 255 255 255 255 
9.493600148721079 4.374593839471459 2.282327528025991 0 0 1 255 255 255 255 
11.36475608292216 5.236682219337755 2.312238579376177 0 0 1 255 255 255 255 
13.23978449131838 6.10097439602687 2.269664475045084 0 0 1 255 255 255 255 
15.09294594167853 6.956081167635729 1.660548524608832 0 0 1 255 255 255 255 
16.10633156568768 7.419639680847969 0 0 0 1 255 255 255 255 
4.533296635440328 2.736779510277541 -0 0 0 1 255 255 255 255 
5.521481614033556 3.333458551470865 1.718157634963343 0 0 1 255 255 255 255 
7.21591166085195 4.357061261839265 2.222900383413317 0 0 1 255 255 255 255 
8.947903647483304 5.402536604714285 2.286282671321548 0 0 1 255 255 255 255 
10.71153693492987 6.467327293633817 2.318469509336541 0 0 1 255 255 255 255 
12.4788301505571 7.534636932227509 2.274441620146347 0 0 1 255 255 255 255 
14.2239724362867 8.588933630638449 1.658638913595224 0 0 1 255 255 255 255 
15.18118129096857 9.164970995242015 0 0 0 1 255 255 255 255 
4.199588137791554 3.22555463874721 -0 0 0 1 255 255 255 255 
5.114811218869967 3.928521484550981 1.718378481497405 0 0 1 255 255 255 255 
6.683949920069673 5.133912453446884 2.226791298564922 0 0 1 255 255 255 255 
8.288346852131689 6.366077455009599 2.29390713433578 0 0 1 255 255 255 255 
9.922143731345541 7.620988438289038 2.326947442961296 0 0 1 255 255 255 255 
11.55929728022623 8.878676284457718 2.278916933664184 0 0 1 255 255 255 255 
13.17446238100377 10.11949443351197 1.656171429571186 0 0 1 255 255 255 255 
14.06364798370433 10.80179358668903 0 0 0 1 255 255 255 255 
3.810398762967663 3.677172604168445 -0 0 0 1 255 255 255 255 
4.640780206327758 4.478457708904095 1.718444161098938 0 0 1 255 255 255 255 
6.064511142382361 5.852145456129757 2.228012765264371 0 0 1 255 255 255 255 
7.520184293626341 7.256862260942154 2.296250432103146 0 0 1 255 255 255 255 
9.002594195669333 8.687462735436007 2.328897260141098 0 0 1 255 255 255 255 
10.48807644171271 10.12108232498972 2.279223656230555 0 0 1 255 255 255 255 
11.95358424360793 11.53522358036158 1.655746589810199 0 0 1 255 255 255 255 
12.76032727700311 12.31417873803331 0 0 0 1 255 255 255 255 
3.372451333510222 4.082561970654334 -0 0 0 1 255 255 255 255 
4.107566760186666 4.972295646050262 1.71831890674661 0 0 1 255 255 255 255 
5.368294164266065 6.497624016439699 2.225894840629736 0 0 1 255 255 255 255 
6.656683742836353 8.057296757142076 2.2919867092857 0 0 1 255 255 255 255 
7.968749386441488 9.645613147228676 2.323653799143885 0 0 1 255 255 255 255 
9.283636335561559 11.23723182446836 2.275960889627989 0 0 1 255 255 255 255 
10.58196908932924 12.80821648501195 1.657368598718216 0 0 1 255 255 255 255 
11.29372261809857 13.67175145294051 0 0 0 1 255 255 255 255 
2.894334355333707 4.434362504499298 -0 0 0 1 255 255 255 255 
3.525438351602308 5.4009152525141 1.718169934067648 0 0 1 255 255 255 255 
4.608084207409267 7.057871064012637 2.224158665947131 0 0 1 255 255 255 255 
5.713835370571376 8.752033321858837 2.287465581025367 0 0 1 255 255 255 255 
6.839929871053119 10.47721897021584 2.317882651130342 0 0 1 255 255 255 255 
7.968574414288327 12.20597716209046 2.272567639995978 0 0 1 255 255 255 255 
9.084197891092179 13.91337517069893 1.658930361934914 0 0 1 255 255 255 255 
9.692595621458183 14.84986689426945 0 0 0 1 255 255 255 255 
2.385952333453005 4.727364567860676 -0 0 0 1 255 255 255 255 
2.906294327616377 5.757709521545046 1.718214605722159 0 0 1 255 255 255 255 
3.798892219089618 7.523274113561924 2.2277230177246 0 0 1 255 255 255 255 
4.710369256131033 9.329370354507613 2.291292381172561 0 0 1 255 255 255 255 
5.638706807357789 11.16855605143529 2.32005525921414 0 0 1 255 255 255 255 
6.569264366321959 13.01145952086622 2.272770578644154 0 0 1 255 255 255 255 
7.489518735766078 14.83122889647465 1.658000629055081 0 0 1 255 255 255 255 
7.990114772690806 15.83107776218808 0 0 0 1 255 255 255 255 
1.857869151598404 4.958736119272104 -0 0 0 1 255 255 255 255 
2.26299409989709 6.039060375752746 1.718555981939469 0 0 1 255 255 255 255 
2.957575135126803 7.888450696155153 2.238862205084654 0 0 1 255 255 255 255 
3.667228102071347 9.782734797654717 2.307879948765893 0 0 1 255 255 255 255 
4.390100668087564 11.71194803951627 2.334586723847475 0 0 1 255 255 255 255 
5.114759283548668 13.64483944524961 2.278377388197648 0 0 1 255 255 255 255 
5.831005942027409 15.55075432911812 1.653277520958653 0 0 1 255 255 255 255 
6.221663802485651 16.60589728155172 0 0 0 1 255 255 255 255 
1.320641221768886 5.128025989850551 -0 0 0 1 255 255 255 255 
1.608503116876967 6.244475617126863 1.719129818725943 0 0 1 255 255 255 255 
2.101585585760069 8.153066116069635 2.255219724684208 0 0 1 255 255 255 255 
2.605993131701218 10.11160821856136 2.333988961159678 0 0 1 255 255 255 255 
3.119792877998534 12.10668354241951 2.358925882750664 0 0 1 255 255 255 255 
3.634808855352315 14.10516229847045 2.288178312257344 0 0 1 255 255 255 255 
4.143149059712068 16.0709664480174 1.645319807522129 0 0 1 255 255 255 255 
4.4225838478391 17.17281837584371 0 0 0 1 255 255 255 255 
0.7842037763687482 5.236961174300472 -0 0 0 1 255 255 255 255 
0.9550349496644553 6.376277876445067 1.719771403082783 0 0 1 255 255 255 255 
1.247337525511226 8.321527791779294 2.271000513526951 0 0 1 255 255 255 255 
1.546859721953449 10.32126179575638 2.359821288435503 0 0 1 255 255 255 255 
1.851925811662644 12.35872258723925 2.384607975450706 0 0 1 255 255 255 255 
2.157608098513549 14.39917180284335 2.299461665377608 0 0 1 255 255 255 255 
2.458748266298405 16.40066259308289 1.636619725150852 0 0 1 255 255 255 255 
2.62615331553571 17.53762519555807 0 0 0 1 255 255 255 255 
0.2228567019570783 5.290659075282947 -0 0 0 1 255 255 255 255 
0.2713462773872603 6.441068613473993 1.72016113499301 0 0 1 255 255 255 255 
0.3540340360026417 8.403866671652755 2.280040138773585 0 0 1 255 255 255 255 
0.4390913450872663 10.42377812480315 2.373995675838862 0 0 1 255 255 255 255 
0.5257776639923781 12.48198312890079 2.400578797910471 0 0 1 255 255 255 255 
0.61263323868735 14.54300981631538 2.309904597577013 0 0 1 255 255 255 255 
0.6977184050525178 16.5592299071735 1.629448059673018 0 0 1 255 255 255 255 
0.746304403319566 17.71744930390321 0 0 0 1 255 255 255 255 
-0.2849039735257741 5.287681045871781 -0 0 0 1 255 255 255 255 
-0.3470245847546961 6.437622903788021 1.720019850725953 0 0 1 255 255 255 255 
-0.4537701857737043 8.400305997697945 2.276145598716578 0 0 1 255 255 255 255 
-0.5627048091215792 10.41917489743062 2.367484577824423 0 0 1 255 255 255 255 
-0.6735484744237055 12.47619723109385 2.394601094975585 0 0 1 255 255 255 255 
-0.7845613482222489 14.53622674138098 2.308027362740738 0 0 1 255 255 255 255 
-0.8943988567576476 16.55252010798062 1.631387336611388 0 0 1 255 255 255 255 
-0.9540900859051251 17.70747433454672 0 0 0 1 255 255 255 255 
-0.8397178838093469 5.228347076773601 -0 0 0 1 255 255 255 255 
-1.022800800725055 6.366321304749623 1.719380186912488 0 0 1 255 255 255 255 
-1.33683560843834 8.311260897643267 2.259682237711701 0 0 1 255 255 255 255 
-1.6576596528718 10.30800150884872 2.341534108292938 0 0 1 255 255 255 255 
-1.984374531154826 12.34211173722403 2.36729090652088 0 0 1 255 255 255 255 
-2.311839154311532 14.37960852030528 2.292427058466973 0 0 1 255 255 255 255 
-2.63560759201591 16.38187269857355 1.64262580371141 0 0 1 255 255 255 255 
-2.812063025049262 17.50877632148519 0 0 0 1 255 255 255 255 
-1.391800125750481 5.109171637410015 -0 0 0 1 255 255 255 255 
-1.695374766569399 6.222251708762365 1.71860566917083 0 0 1 255 255 255 255 
-2.216193182546576 8.12767735799191 2.23976579471314 0 0 1 255 255 255 255 
-2.747848741068164 10.07939398738495 2.309984170892307 0 0 1 255 255 255 255 
-3.289407717954998 12.06717929923451 2.33551850129792 0 0 1 255 255 255 255 
-3.832391884151356 14.05871323271638 2.276879524302574 0 0 1 255 255 255 255 
-4.369866230997842 16.02312573255747 1.653496651649204 0 0 1 255 255 255 255 
-4.660882910653432 17.1096797362938 0 0 0 1 255 255 255 255 
-1.943381177493953 4.925851004373814 -0 0 0 1 255 255 255 255 
-2.367312528283283 5.999616126629505 1.718126923393367 0 0 1 255 255 255 255 
-3.094868005217937 7.839918738568924 2.225673421516083 0 0 1 255 255 255 255 
-3.837285611621 9.721891399988433 2.288251552297818 0 0 1 255 255 255 255 
-4.593474194739975 11.63834229199696 2.315782497848191 0 0 1 255 255 255 255 
-5.351575154381818 13.55868466513504 2.269172217020205 0 0 1 255 255 255 255 
-6.102156641620896 15.45648425369926 1.659658609413725 0 0 1 255 255 255 255 
-6.508028760637423 16.49577240365571 0 0 0 1 255 255 255 255 
-2.481613999906224 4.677855504936004 -0 0 0 1 255 255 255 255 
-3.022813751337468 5.697651875675639 1.718058848768648 0 0 1 255 255 255 255 
-3.951508103488556 7.446216549455319 2.221741970233626 0 0 1 255 255 255 255 
-4.899599683377891 9.233448545075341 2.283408800654457 0 0 1 255 255 255 255 
-5.865142344002357 11.05336271537691 2.313940856200351 0 0 1 255 255 255 255 
-6.832954232908883 12.87709325219075 2.270925718211953 0 0 1 255 255 255 255 
-7.790034651047243 14.67910227590644 1.660064778419147 0 0 1 255 255 255 255 
-8.310471918982227 15.66527992171456 0 0 0 1 255 255 255 255 
-2.985194426004173 4.373712261226008 -0 0 0 1 255 255 255 255 
-3.635943126745021 5.32701837897955 1.718235867345168 0 0 1 255 255 255 255 
-4.752117023175845 6.961489546641332 2.224469829717977 0 0 1 255 255 255 255 
-5.892562797585896 8.63241209787274 2.289421955743057 0 0 1 255 255 255 255 
-7.053957614013932 10.33396173820376 2.322139482721354 0 0 1 255 255 255 255 
-8.217929261624944 12.03909096153069 2.276631751923393 0 0 1 255 255 255 255 
-9.367101099426247 13.72204293276235 1.657529249500378 0 0 1 255 255 255 255 
-9.996866669479505 14.64676105722411 0 0 0 1 255 255 255 255 
-3.456609152336064 4.01155748601458 -0 0 0 1 255 255 255 255 
-4.209919061640373 4.885808508836531 1.718382386210891 0 0 1 255 255 255 255 
-5.501540261523592 6.384631971838907 2.227214244812413 0 0 1 255 255 255 255 
-6.822055955773124 7.917109187599229 2.294982160795292 0 0 1 255 255 255 255 
-8.16682835352643 9.477771931639062 2.328313001084094 0 0 1 255 255 255 255 
-9.514433286918136 11.04172877610521 2.279677726307322 0 0 1 255 255 255 255 
-10.84378567541414 12.58440863372488 1.655852309390343 0 0 1 255 255 255 255 
-11.57555178530292 13.43396995134027 0 0 0 1 255 255 255 255 
-3.88615206818671 3.597020949163244 -0 0 0 1 255 255 255 255 
-4.733093651136082 4.38104186302218 1.718323954933991 0 0 1 255 255 255 255 
-6.18513182911228 5.725393192980027 2.226258125838417 0 0 1 255 255 255 255 
-7.669796054292623 7.099493818129681 2.29330140006494 0 0 1 255 255 255 255 
-9.181674598929321 8.498915094807115 2.326101647879772 0 0 1 255 255 255 255 
-10.69666093466277 9.901382671971593 2.278021648860824 0 0 1 255 255 255 255 
-12.19154305341625 11.2853934532514 1.6566529205292 0 0 1 255 255 255 255 
-13.01401099988254 12.04576636091674 0 0 0 1 255 255 255 255 
-4.265541071104327 3.137818332259704 -0 0 0 1 255 255 255 255 
-5.195343522205386 3.821991939627782 1.718135717731483 0 0 1 255 255 255 255 
-6.789520976749776 4.995538705357396 2.223170500396946 0 0 1 255 255 255 255 
-8.419222663004557 6.194248278176183 2.286838687187505 0 0 1 255 255 255 255 
-10.07870795842951 7.415060329151664 2.318476863449896 0 0 1 255 255 255 255 
-11.74160754686507 8.638675192835555 2.273713881389235 0 0 1 255 255 255 255 
-13.38379585723131 9.847601885802849 1.658852582510001 0 0 1 255 255 255 255 
-14.28451301018985 10.50797994084992 0 0 0 1 255 255 255 255 
-4.588446797157974 2.643273559643982 -0 0 0 1 255 255 255 255 
-5.588712057979794 3.219800435873597 1.718050627151918 0 0 1 255 255 255 255 
-7.3033861163534 4.208875454384526 2.223244391227801 0 0 1 255 255 255 255 
-9.056509257331207 5.218636824785583 2.284826131987142 0 0 1 255 255 255 255 
-10.84163310900199 6.247090991380345 2.314590336572051 0 0 1 255 255 255 255 
-12.63040334480628 7.278058336148497 2.270888719115819 0 0 1 255 255 255 255 
-14.39766754448342 8.297702287972577 1.659746774673086 0 0 1 255 255 255 255 
-15.36586915927953 8.851837899596656 0 0 0 1 255 255 255 255 
-4.850836966512876 2.123705119393925 -0 0 0 1 255 255 255 255 
-5.908010642075443 2.586928986667984 1.718267609072726 0 0 1 255 255 255 255 
-7.718859926832578 3.38135460021525 2.231295778539495 0 0 1 255 255 255 255 
-9.572111593756125 4.192537570075356 2.29612865465289 0 0 1 255 255 255 255 
-11.45934645679665 5.018866204835989 2.323199354914089 0 0 1 255 255 255 255 
-13.35027008428955 5.847329566691348 2.273131306091546 0 0 1 255 255 255 255 
-15.21713015990066 6.666812740627221 1.656973363200002 0 0 1 255 255 255 255 
-16.2445620695859 7.111900181772165 0 0 0 1 255 255 255 255 
-5.051080673309523 1.589756655284728 -0 0 0 1 255 255 255 255 
-6.151151807914212 1.936398595367963 1.718841175553784 0 0 1 255 255 255 255 
-8.032869844010825 2.530362212288133 2.247721966570742 0 0 1 255 255 255 255 
-9.962236588826279 3.137532218436825 2.322221442810035 0 0 1 255 255 255 255 
-11.92741046239685 3.75606422153188 2.34683351105744 0 0 1 255 255 255 255 
-13.89605507696661 4.376178618186617 2.281739563297892 0 0 1 255 255 255 255 
-15.83545063457754 4.988972148308075 1.649687262378985 0 0 1 255 255 255 255 
-16.91514331307998 5.323802771580126 0 0 0 1 255 255 255 255 
-5.189854282292971 1.051739507689424 -0 0 0 1 255 255 255 255 
-6.31906700730995 1.280903405076417 1.719656733881029 0 0 1 255 255 255 255 
-8.247659588295939 1.673134766567032 2.267468555681034 0 0 1 255 255 255 255 
-10.22951845809824 2.074850060220923 2.354291509666668 0 0 1 255 255 255 255 
-12.24869094912553 2.484009336824903 2.378895366163245 0 0 1 255 255 255 255 
-14.27090123091745 2.894028292394963 2.296184253637781 0 0 1 255 255 255 255 
-16.25606015751613 3.29830781709784 1.638992065344246 0 0 1 255 255 255 255 
-17.37986874253162 3.522084753433263 0 0 0 1 255 255 255 255 
-5.272727813735712 0.4889610614363256 -0 0 0 1 255 255 255 255 
-6.419019800272418 0.5953864860067696 1.720286863605923 0 0 1 255 255 255 255 
-8.37448325256965 0.7771944129117192 2.282274376211101 0 0 1 255 255 255 255 
-10.38744887572431 0.963920836817077 2.37743837915341 0 0 1 255 255 255 255 
-12.43863224228525 1.154124765206336 2.404591460157656 0 0 1 255 255 255 255 
-14.49257767234148 1.344613710597049 2.31269781979823 0 0 1 255 255 255 255 
-16.50024694832706 1.531484358869215 1.627457833512332 0 0 1 255 255 255 255 
-17.6573991830689 1.637440356641934 0 0 0 1 255 255 255 255 
-5.295350677711484 -3.776877000856142e-07 -0 0 0 1 255 255 255 255 
-6.446575528113456 -8.90082056829867e-05 1.720283028883652 0 0 1 255 255 255 255 
-8.410535150285115 -0.0007036807547614685 2.28203638797415 0 0 1 255 255 255 255 
-10.43214622601084 -0.0007966486504061349 2.377030039236036 0 0 1 255 255 255 255 
-12.49211948830653 -0.000804766783386898 2.404422000863461 0 0 1 255 255 255 255 
-14.55489278776971 -0.0008431842590821959 2.312933415642673 0 0 1 255 255 255 255 
-16.5711447552823 -0.001670513759758698 1.627437747052777 0 0 1 255 255 255 255 
-17.73316032228851 -2.921374224243288e-07 0 0 0 1 255 255 255 255 
-5.264950731183441 -0.5666011759385193 -0 0 0 1 255 255 255 255 
-6.410560439728371 -0.6901710647267754 1.719636496902216 0 0 1 255 255 255 255 
-8.36742521718914 -0.9022525002578705 2.266525951109529 0 0 1 255 255 255 255 
-10.37798405799303 -1.118733147392735 2.352769484215225 0 0 1 255 255 255 255 
-12.4263557675337 -1.339168493643811 2.377875138349241 0 0 1 255 255 255 255 
-14.47788157833602 -1.560189959529764 2.296314462616271 0 0 1 255 255 255 255 
-16.49195674726725 -1.77903152937971 1.639223167346268 0 0 1 255 255 255 255 
-17.63135525731374 -1.897441547326972 0 0 0 1 255 255 255 255 
-5.176593174750971 -1.115178499120393 0 0 0 1 255 255 255 255 
-6.30411600062107 -1.358433278377939 1.718791354844655 0 0 1 255 255 255 255 
-8.233225831541187 -1.775744932520557 2.245833757138062 0 0 1 255 255 255 255 
-10.21056683966402 -2.20165221344647 2.319353837601763 0 0 1 255 255 255 255 
-12.22457176002479 -2.635571103828271 2.344177043638723 0 0 1 255 255 255 255 
-14.24222021698536 -3.070783764538648 2.280588498073863 0 0 1 255 255 255 255 
-16.23063034794185 -3.501590056985146 1.650577495939738 0 0 1 255 255 255 255 
-17.33546281975495 -3.734528142762125 0 0 0 1 255 255 255 255 
-5.025680876196775 -1.668314676179097 0 0 0 1 255 255 255 255 
-6.121107409886742 -2.032272678993707 1.718202594351441 0 0 1 255 255 255 255 
-7.99798451034762 -2.656870043645098 2.22886350008427 0 0 1 255 255 255 255 
-9.918073351542752 -3.2940844399245 2.292570462106764 0 0 1 255 255 255 255 
-11.87335403455611 -3.943269272173236 2.319535976512228 0 0 1 255 255 255 255 
-13.83252485120991 -4.59428652280321 2.270904963905961 0 0 1 255 255 255 255 
-15.76790547802717 -5.238865899136981 1.658305530262654 0 0 1 255 255 255 255 
-16.83008216320868 -5.586881821494083 0 0 0 1 255 255 255 255 
-4.809559459153991 -2.215600265226464 0 0 0 1 255 255 255 255 
-5.858126480434988 -2.698859524965244 1.718015610499666 0 0 1 255 255 255 255 
-7.655977853477078 -3.528223998680536 2.221533809595643 0 0 1 255 255 255 255 
-9.493600956460638 -4.374593377104223 2.282316336560515 0 0 1 255 255 255 255 
-11.36475691516594 -5.236681828368138 2.312225330165064 0 0 1 255 255 255 255 
-13.23978494745506 -6.100975155190365 2.269656506008142 0 0 1 255 255 255 255 
-15.09294920373919 -6.956083118312101 1.660550675489407 0 0 1 255 255 255 255 
-16.10633155809445 -7.419639313710444 0 0 0 1 255 255 255 255 
-4.533296673715837 -2.736779063255968 0 0 0 1 255 255 255 255 
-5.52148102890646 -3.333457972292245 1.718158602466143 0 0 1 255 255 255 255 
-7.215912947238697 -4.35706030602377 2.2228937273331 0 0 1 255 255 255 255 
-8.947905222450188 -5.402536562611908 2.286269806359239 0 0 1 255 255 255 255 
-10.71153849057133 -6.467327304410583 2.318456790718378 0 0 1 255 255 255 255 
-12.47883128519719 -7.534637963266496 2.27443585040585 0 0 1 255 255 255 255 
-14.2239758454132 -8.588934689603979 1.65864138723009 0 0 1 255 255 255 255 
-15.18118128212793 -9.164970626265283 0 0 0 1 255 255 255 255 
-4.199588070644942 -3.225555342549655 0 0 0 1 255 255 255 255 
-5.114810925816963 -3.928520090163497 1.71837876338016 0 0 1 255 255 255 255 
-6.683950824849521 -5.133912242753081 2.226787491382876 0 0 1 255 255 255 255 
-8.28834801171188 -6.366077090903146 2.29389994438272 0 0 1 255 255 255 255 
-9.922144839018742 -7.620987114877845 2.326941174878297 0 0 1 255 255 255 255 
-11.55929784588978 -8.878675832416869 2.278914888565767 0 0 1 255 255 255 255 
-13.17446396283755 -10.11949326271539 1.656172693493844 0 0 1 255 255 255 255 
-14.0636479740518 -10.80179321563569 0 0 0 1 255 255 255 255 
-3.810398693513611 -3.677173292518166 0 0 0 1 255 255 255 255 
-4.640779904640906 -4.47845730841277 1.7184447648014 0 0 1 255 255 255 255 
-6.064511342734201 -5.852144656028596 2.228013049972373 0 0 1 255 255 255 255 
-7.520184711267039 -7.256861245265142 2.296250612681012 0 0 1 255 255 255 255 
-9.002594552923636 -8.68746077166969 2.328897984137598 0 0 1 255 255 255 255 
-10.48807614337065 -10.12108104402153 2.279224360987278 0 0 1 255 255 255 255 
-11.95358382855783 -11.53522169398851 1.655745671175368 0 0 1 255 255 255 255 
-12.76032726701888 -12.31417836475859 0 0 0 1 255 255 255 255 
-3.37245126526197 -4.082562643410966 0 0 0 1 255 255 255 255 
-4.107566559192825 -4.972295344903302 1.718319469082292 0 0 1 255 255 255 255 
-5.368293969534773 -6.497621831100795 2.22589792817443 0 0 1 255 255 255 255 
-6.656683746574074 -8.057294329746192 2.29199164212756 0 0 1 255 255 255 255 
-7.968749326236209 -9.645610774552898 2.323658576375385 0 0 1 255 255 255 255 
-9.283635567795168 -11.23722995286517 2.275962922628811 0 0 1 255 255 255 255 
-10.58196769617055 -12.80821355216893 1.657366664576588 0 0 1 255 255 255 255 
-11.29372260828768 -13.67175107742425 0 0 0 1 255 255 255 255 
-2.894334291713821 -4.434363162403681 0 0 0 1 255 255 255 255 
-3.525438322753223 -5.400915174079065 1.718170321301816 0 0 1 255 255 255 255 
-4.608084107424911 -7.057869043023381 2.224162196160672 0 0 1 255 255 255 255 
-5.713835500293746 -8.752031078375969 2.287471224295923 0 0 1 255 255 255 255 
-6.839929933270925 -10.47721678541139 2.31788768044892 0 0 1 255 255 255 255 
-7.968573767717464 -12.20597435940468 2.2725695190218 0 0 1 255 255 255 255 
-9.084196670448577 -13.91337247403294 1.658928605569378 0 0 1 255 255 255 255 
-9.692595612312633 -14.84986651661813 0 0 0 1 255 255 255 255 
-2.385952277542452 -4.727365212458654 0 0 0 1 255 255 255 255 
-2.906294600199843 -5.757708943906171 1.718214212038245 0 0 1 255 255 255 255 
-3.79889250680941 -7.523273816854903 2.227725183232217 0 0 1 255 255 255 255 
-4.710369814782891 -9.329368880963614 2.291295708095723 0 0 1 255 255 255 255 
-5.638707292266121 -11.16855362931473 2.320057961741234 0 0 1 255 255 255 255 
-6.569264176217898 -13.0114584006246 2.272771344530461 0 0 1 255 255 255 255 
-7.489518209135126 -14.83122741194775 1.657999808496053 0 0 1 255 255 255 255 
-7.990114764653495 -15.83107738262392 0 0 0 1 255 255 255 255 
-1.857869105931758 -4.958736752761151 0 0 0 1 255 255 255 255 
-2.26299440455788 -6.039060863173414 1.718556011012597 0 0 1 255 255 255 255 
-2.957575674192961 -7.888451088428552 2.238862303855626 0 0 1 255 255 255 255 
-3.667228936901147 -9.782734091808004 2.307879940575503 0 0 1 255 255 255 255 
-4.390101434187618 -11.71194737110398 2.334586451256511 0 0 1 255 255 255 255 
-5.114759446937919 -13.64483901171729 2.278377176247244 0 0 1 255 255 255 255 
-5.831005929886564 -15.55075404901954 1.653277582377632 0 0 1 255 255 255 255 
-6.221663795920931 -16.60589690039061 0 0 0 1 255 255 255 255 
-1.320641242661946 -5.128025600849191 0 0 0 1 255 255 255 255 
-1.608503531261596 -6.244476428779489 1.719130064815303 0 0 1 255 255 255 255 
-2.101586327627836 -8.153067322631335 2.255218227006482 0 0 1 255 255 255 255 
-2.60599417131763 -10.11160839592583 2.333986300517705 0 0 1 255 255 255 255 
-3.119793861694346 -12.10668374075236 2.35892334922873 0 0 1 255 255 255 255 
-3.634809327151228 -14.10516269828248 2.288177384108894 0 0 1 255 255 255 255 
-4.143149452688545 -16.07096752341361 1.645320858039617 0 0 1 255 255 255 255 
-4.422583843013348 -17.17281799346582 0 0 0 1 255 255 255 255 
-0.7842037560113926 -5.236961793728179 0 0 0 1 255 255 255 255 
-0.9550353752695864 -6.376278707531509 1.719771233632718 0 0 1 255 255 255 255 
-1.247338277158558 -8.321528196873444 2.270998049159879 0 0 1 255 255 255 255 
-1.546860779676484 -10.3212622302914 2.359817405331832 0 0 1 255 255 255 255 
-1.851926820578024 -12.35872303440724 2.384604601395972 0 0 1 255 255 255 255 
-2.157608666209137 -14.39917243077073 2.299460742101913 0 0 1 255 255 255 255 
-2.45874870871182 -16.40066397461654 1.636621003093563 0 0 1 255 255 255 255 
-2.62615331260928 -17.5376248123756 0 0 0 1 255 255 255 255 
-0.2228566961125625 -5.290659691908449 0 0 0 1 255 255 255 255 
-0.2713467389657405 -6.441068723957624 1.720160300059115 0 0 1 255 255 255 255 
-0.3540347806395486 -8.403867166465476 2.280037849318029 0 0 1 255 255 255 255 
-0.4390924134676633 -10.42377865700778 2.373992120417754 0 0 1 255 255 255 255 
-0.5257786785167781 -12.48198365107959 2.400575867364818 0 0 1 255 255 255 255 
-0.6126338610231568 -14.54301045977071 2.309904078367711 0 0 1 255 255 255 255 
-0.69771880493354 -16.55923087916994 1.629448509181485 0 0 1 255 255 255 255 
-0.7463044002893092 -17.71744792041017 0 0 0 1 255 255 255 255 
0.2849039660582479 -5.287681662653451 0 0 0 1 255 255 255 255 
0.3470241140574588 -6.437623707748836 1.720019718949924 0 0 1 255 255 255 255 
0.4537694594125651 -8.400306150907035 2.276144174192324 0 0 1 255 255 255 255 
0.5627037506324383 -10.41917510981441 2.367482484087106 0 0 1 255 255 255 255 
0.6735474696962503 -12.47619744833103 2.394599295887291 0 0 1 255 255 255 255 
0.7845606793441008 -14.53622701086247 2.308026923252898 0 0 1 255 255 255 255 
0.8943984626140755 -16.55252076314734 1.631388066746015 0 0 1 255 255 255 255 
0.9540900848316468 -17.70747395098389 0 0 0 1 255 255 255 255 
0.839717862046743 -5.228347696648179 0 0 0 1 255 255 255 255 
1.022800303899653 -6.366321937024492 1.719380229413617 0 0 1 255 255 255 255 
1.336834873029674 -8.31126047036056 2.259682501276665 0 0 1 255 255 255 255 
1.657658597584073 -10.30800112992735 2.341534620616289 0 0 1 255 255 255 255 
1.984373515521066 -12.34211136159991 2.367291209840307 0 0 1 255 255 255 255 
2.311838370620348 -14.37960810557339 2.292427081841887 0 0 1 255 255 255 255 
2.635607096100077 -16.38187218667679 1.642625665297571 0 0 1 255 255 255 255 
2.81206302192082 -17.50877593836696 0 0 0 1 255 255 255 255 
1.391800090502006 -5.109172263391439 0 0 0 1 255 255 255 255 
1.695374218064109 -6.222252137322279 1.718605868800839 0 0 1 255 255 255 255 
2.216192378161507 -8.127676309170424 2.239767873881203 0 0 1 255 255 255 255 
2.747847641216469 -10.07939197778125 2.309987482129951 0 0 1 255 255 255 255 
3.2894066361433 -12.06717829638221 2.33552126950078 0 0 1 255 255 255 255 
3.83239091572592 -14.05871214443607 2.276880332867163 0 0 1 255 255 255 255 
4.369865492333423 -16.02312399737457 1.653495639052884 0 0 1 255 255 255 255 
4.660882905586357 -17.10967935405345 0 0 0 1 255 255 255 255 
1.943381130042192 -4.925851639474129 0 0 0 1 255 255 255 255 
2.36731199114196 -5.999615603888278 1.718126704725859 0 0 1 255 255 255 255 
3.094867158319456 -7.83991845603478 2.225676511617262 0 0 1 255 255 255 255 
3.837284469840765 -9.721890177649167 2.288256414118009 0 0 1 255 255 255 255 
4.593473071687208 -11.63834107377688 2.315786813804032 0 0 1 255 255 255 255 
5.351574065192055 -13.55868336571148 2.269173524721793 0 0 1 255 255 255 255 
6.102155642448207 -15.45648270250779 1.659656000260939 0 0 1 255 255 255 255 
6.508028736034629 -16.4957710297415 0 0 0 1 255 255 255 255 
2.481613942363016 -4.677856151842133 0 0 0 1 255 255 255 255 
3.022813010717029 -5.697651938876605 1.71805939159567 0 0 1 255 255 255 255 
3.951507250170573 -7.446216210918368 2.221744125372083 0 0 1 255 255 255 255 
4.899598535865215 -9.233447325321078 2.28341210853961 0 0 1 255 255 255 255 
5.865141219487033 -11.05336148272165 2.313944187453128 0 0 1 255 255 255 255 
6.832953098024356 -12.87709197970637 2.270927200809637 0 0 1 255 255 255 255 
7.790033721231649 -14.67909987355549 1.660063289063442 0 0 1 255 255 255 255 
8.310471910710215 -15.66527954248221 0 0 0 1 255 255 255 255 
2.985194361284583 -4.373712921778448 0 0 0 1 255 255 255 255 
3.63594228804108 -5.327018294689077 1.718236550140431 0 0 1 255 255 255 255 
4.752116500776368 -6.961489697979398 2.224469051261377 0 0 1 255 255 255 255 
5.892562029754872 -8.632411455046705 2.289420186757081 0 0 1 255 255 255 255 
7.053956867689219 -10.33396106772845 2.32213833039483 0 0 1 255 255 255 255 
8.217928470195019 -12.03909034977093 2.276631692361028 0 0 1 255 255 255 255 
9.367100902684967 -13.72204172381717 1.657528706643801 0 0 1 255 255 255 255 
9.99686666017587 -14.64676067995345 0 0 0 1 255 255 255 255 
3.456609083601316 -4.011558161620052 0 0 0 1 255 255 255 255 
4.209918234041606 -4.885807441876116 1.718382705716578 0 0 1 255 255 255 255 
5.501540292923186 -6.384631794772593 2.227209736688393 0 0 1 255 255 255 255 
6.822055829756723 -7.917109327479222 2.294973682830715 0 0 1 255 255 255 255 
8.166828255566569 -9.477772044999274 2.328305112133028 0 0 1 255 255 255 255 
9.5144331414636 -11.04172908728091 2.279674427320316 0 0 1 255 255 255 255 
10.84378706510734 -12.58440946148407 1.655853546859112 0 0 1 255 255 255 255 
11.57555177542209 -13.43396957623353 0 0 0 1 255 255 255 255 
3.88615199889586 -3.59702164040305 0 0 0 1 255 255 255 255 
4.733092529253257 -4.381040499915327 1.718324597935325 0 0 1 255 255 255 255 
6.185131953485872 -5.725394087001931 2.226251964816713 0 0 1 255 255 255 255 
7.669796083708673 -7.099495128013722 2.293289149950255 0 0 1 255 255 255 255 
9.181674674128676 -8.498915388787543 2.326089010789981 0 0 1 255 255 255 255 
10.69666096815806 -9.901383259916861 2.278015271401313 0 0 1 255 255 255 255 
12.19154549835744 -11.28539535016897 1.656655194138736 0 0 1 255 255 255 255 
13.01401098992177 -12.04576598805748 0 0 0 1 255 255 255 255 
4.265541004758304 -3.137819038829598 0 0 0 1 255 255 255 255 
5.195341629969554 -3.821990954691317 1.718137362768076 0 0 1 255 255 255 255 
6.789519937201545 -4.995538597643347 2.22316745779537 0 0 1 255 255 255 255 
8.419221529451969 -6.194248598904114 2.286830523995035 0 0 1 255 255 255 255 
10.07870689213395 -7.415059653493989 2.318466378392281 0 0 1 255 255 255 255 
11.74160635860861 -8.6386758537502 2.273706840584959 0 0 1 255 255 255 255 
13.38379690619509 -9.847602597612974 1.658853601243477 0 0 1 255 255 255 255 
14.28451300065241 -10.50797957019441 0 0 0 1 255 255 255 255 
4.588446834575483 -2.643273111070404 0 0 0 1 255 255 255 255 
5.58870937318431 -3.219797926726351 1.718052905076329 0 0 1 255 255 255 255 
7.303382674273418 -4.208873752188153 2.223249674911391 0 0 1 255 255 255 255 
9.056505626223107 -5.218635491279005 2.284831211573401 0 0 1 255 255 255 255 
10.84162957616888 -6.247089656629157 2.314590932832342 0 0 1 255 255 255 255 
12.63039952441744 -7.27805634926497 2.270884552106267 0 0 1 255 255 255 255 
14.3976644071405 -8.297700241727073 1.659744409655683 0 0 1 255 255 255 255 
15.36586915063706 -8.851837530978397 0 0 0 1 255 255 255 255 
4.850836915447803 -2.123705852412926 0 0 0 1 255 255 255 255 
5.908006613826623 -2.586926808385358 1.718270888412186 0 0 1 255 255 255 255 
7.718853075523756 -3.381351253981806 2.231310982073144 0 0 1 255 255 255 255 
9.572104375741675 -4.192534624417839 2.296150473445723 0 0 1 255 255 255 255 
11.45933936808412 -5.018863188507894 2.323216729207926 0 0 1 255 255 255 255 
13.35026253078984 -5.847326781929744 2.273133759554023 0 0 1 255 255 255 255 
15.2171200844135 -6.66680820503462 1.656965757151646 0 0 1 255 255 255 255 
16.2445620813806 -7.111900771210751 0 0 0 1 255 255 255 255 
5.051080698082711 -1.589756192953009 0 0 0 1 255 255 255 255 
6.15114672389904 -1.936395010619105 1.718845124370432 0 0 1 255 255 255 255 
8.032860605177731 -2.530357057143003 2.247742414274894 0 0 1 255 255 255 255 
9.962226815970075 -3.137528545461308 2.322251776508912 0 0 1 255 255 255 255 
11.92740072040813 -3.756060444999658 2.346863457983423 0 0 1 255 255 255 255 
13.89604472551863 -4.376174918362478 2.281751842653487 0 0 1 255 255 255 255 
15.83543310166808 -4.988964896186883 1.649674189067896 0 0 1 255 255 255 255 
16.9151433222737 -5.323803358748561 0 0 0 1 255 255 255 255 
5.189854255236167 -1.051740257581664 0 0 0 1 255 255 255 255 
6.31906160562602 -1.280900741244885 1.719660355940492 0 0 1 255 255 255 255 
8.247651319048895 -1.67312967537831 2.267482642157805 0 0 1 255 255 255 255 
10.22950964446125 -2.074846331448965 2.354311754639089 0 0 1 255 255 255 255 
12.24868184164799 -2.484005550044927 2.378919003301341 0 0 1 255 255 255 255 
14.27089142450372 -2.894024827785659 2.296200255666652 0 0 1 255 255 255 255 
16.25604083874149 -3.298300137861503 1.638977418251381 0 0 1 255 255 255 255 
17.37986874878104 -3.522085338974569 0 0 0 1 255 255 255 255 
5.272727821689545 -0.4889605920451839 -0 0 0 1 255 255 255 255 
6.419019558788807 -0.5953835543369187 1.72028702194336 0 0 1 255 255 255 255 
8.374484355217724 -0.7771913215552729 2.282270317827345 0 0 1 255 255 255 255 
10.38745008952937 -0.9639169824880107 2.377431597869489 0 0 1 255 255 255 255 
12.43863345162588 -1.154120835695649 2.404584215425262 0 0 1 255 255 255 255 
14.49257890958797 -1.344611682373457 2.312693896515935 0 0 1 255 255 255 255 
16.5002504893116 -1.531478734369633 1.627459998416398 0 0 1 255 255 255 255 
17.65739918123177 -1.637439992831988 0 0 0 1 255 255 255 255 
0 1 
0 8 
0 456 
1 2 
1 9 
1 457 
2 3 
2 10 
2 458 
3 4 
3 11 
3 459 
4 5 
4 12 
4 460 
5 6 
5 13 
5 461 
6 7 
6 14 
6 462 
7 15 
7 463 
8 9 
8 16 
9 10 
9 17 
10 11 
10 18 
11 12 
11 19 
12 13 
12 20 
13 14 
13 21 
14 15 
14 22 
15 23 
16 17 
16 24 
17 18 
17 25 
18 19 
18 26 
19 20 
19 27 
20 21 
20 28 
21 22 
21 29 
22 23 
22 30 
23 31 
24 25 
24 32 
25 26 
25 33 
26 27 
26 34 
27 28 
27 35 
28 29 
28 36 
29 30 
29 37 
30 31 
30 38 
31 39 
32 33 
32 40 
33 34 
33 41 
34 35 
34 42 
35 36 
35 43 
36 37 
36 44 
37 38 
37 45 
38 39 
38 46 
39 47 
40 41 
40 48 
41 42 
41 49 
42 43 
42 50 
43 44 
43 51 
44 45 
44 52 
45 46 
45 53 
46 47 
46 54 
47 55 
48 49 
48 56 
49 50 
49 57 
50 51 
50 58 
51 52 
51 59 
52 53 
52 60 
53 54 
53 61 
54 55 
54 62 
55 63 
56 57 
56 64 
57 58 
57 65 
58 59 
58 66 
59 60 
59 67 
60 61 
60 68 
61 62 
61 69 
62 63 
62 70 
63 71 
64 65 
64 72 
65 66 
65 73 
66 67 
66 74 
67 68 
67 75 
68 69 
68 76 
69 70 
69 77 
70 71 
70 78 
71 79 
72 73 
72 80 
73 74 
73 81 
74 75 
74 82 
75 76 
75 83 
76 77 
76 84 
77 78 
77 85 
78 79 
78 86 
79 87 
80 81 
80 88 
81 82 
81 89 
82 83 
82 90 
83 84 
83 91 
84 85 
84 92 
85 86 
85 93 
86 87 
86 94 
87 95 
88 89 
88 96 
89 90 
89 97 
90 91 
90 98 
91 92 
91 99 
92 93 
92 100 
93 94 
93 101 
94 95 
94 102 
95 103 
96 97 
96 104 
97 98 
97 105 
98 99 
98 106 
99 100 
99 107 
100 101 
100 108 
101 102 
101 109 
102 103 
102 110 
103 111 
104 105 
104 112 
105 106 
105 113 
106 107 
106 114 
107 108 
107 115 
108 109 
108 116 
109 110 
109 117 
110 111 
110 118 
111 119 
112 113 
112 120 
113 114 
113 121 
114 115 
114 122 
115 116 
115 123 
116 117 
116 124 
117 118 
117 125 
118 119 
118 126 
119 127 
120 121 
120 128 
121 122 
121 129 
122 123 
122 130 
123 124 
123 131 
124 125 
124 132 
125 126 
125 133 
126 127 
126 134 
127 135 
128 129 
128 136 
129 130 
129 137 
130 131 
130 138 
131 132 
131 139 
132 133 
132 140 
133 134 
133 141 
134 135 
134 142 
135 143 
136 137 
136 144 
137 138 
137 145 
138 139 
138 146 
139 140 
139 147 
140 141 
140 148 
141 142 
141 149 
142 143 
142 150 
143 151 
144 145 
144 152 
145 146 
145 153 
146 147 
146 154 
147 148 
147 155 
148 149 
148 156 
149 150 
149 157 
150 151 
150 158 
151 159 
152 153 
152 160 
153 154 
153 161 
154 155 
154 162 
155 156 
155 163 
156 157 
156 164 
157 158 
157 165 
158 159 
158 166 
159 167 
160 161 
160 168 
161 162 
161 169 
162 163 
162 170 
163 164 
163 171 
164 165 
164 172 
165 166 
165 173 
166 167 
166 174 
167 175 
168 169 
168 176 
169 170 
169 177 
170 171 
170 178 
171 172 
171 179 
172 173 
172 180 
173 174 
173 181 
174 175 
174 182 
175 183 
176 177 
176 184 
177 178 
177 185 
178 179 
178 186 
179 180 
179 187 
180 181 
180 188 
181 182 
181 189 
182 183 
182 190 
183 191 
184 185 
184 192 
185 186 
185 193 
186 187 
186 194 
187 188 
187 195 
188 189 
188 196 
189 190 
189 197 
190 191 
190 198 
191 199 
192 193 
192 200 
193 194 
193 201 
194 195 
194 202 
195 196 
195 203 
196 197 
196 204 
197 198 
197 205 
198 199 
198 206 
199 207 
200 201 
200 208 
201 202 
201 209 
202 203 
202 210 
203 204 
203 211 
204 205 
204 212 
205 206 
205 213 
206 207 
206 214 
207 215 
208 209 
208 216 
209 210 
209 217 
210 211 
210 218 
211 212 
211 219 
212 213 
212 220 
213 214 
213 221 
214 215 
214 222 
215 223 
216 217 
216 224 
217 218 
217 225 
218 219 
218 226 
219 220 
219 227 
220 221 
220 228 
221 222 
221 229 
222 223 
222 230 
223 231 
224 225 
224 232 
225 226 
225 233 
226 227 
226 234 
227 228 
227 235 
228 229 
228 236 
229 230 
229 237 
230 231 
230 238 
231 239 
232 233 
232 240 
233 234 
233 241 
234 235 
234 242 
235 236 
235 243 
236 237 
236 244 
237 238 
237 245 
238 239 
238 246 
239 247 
240 241 
240 248 
241 242 
241 249 
242 243 
242 250 
243 244 
243 251 
244 245 
244 252 
245 246 
245 253 
246 247 
246 254 
247 255 
248 249 
248 256 
249 250 
249 257 
250 251 
250 258 
251 252 
251 259 
252 253 
252 260 
253 254 
253 261 
254 255 
254 262 
255 263 
256 257 
256 264 
257 258 
257 265 
258 259 
258 266 
259 260 
259 267 
260 261 
260 268 
261 262 
261 269 
262 263 
262 270 
263 271 
264 265 
264 272 
265 266 
265 273 
266 267 
266 274 
267 268 
267 275 
268 269 
268 276 
269 270 
269 277 
270 271 
270 278 
271 279 
272 273 
272 280 
273 274 
273 281 
274 275 
274 282 
275 276 
275 283 
276 277 
276 284 
277 278 
277 285 
278 279 
278 286 
279 287 
280 281 
280 288 
281 282 
281 289 
282 283 
282 290 
283 284 
283 291 
284 285 
284 292 
285 286 
285 293 
286 287 
286 294 
287 295 
288 289 
288 296 
289 290 
289 297 
290 291 
290 298 
291 292 
291 299 
292 293 
292 300 
293 294 
293 301 
294 295 
294 302 
295 303 
296 297 
296 304 
297 298 
297 305 
298 299 
298 306 
299 300 
299 307 
300 301 
300 308 
301 302 
301 309 
302 303 
302 310 
303 311 
304 305 
304 312 
305 306 
305 313 
306 307 
306 314 
307 308 
307 315 
308 309 
308 316 
309 310 
309 317 
310 311 
310 318 
311 319 
312 313 
312 320 
313 314 
313 321 
314 315 
314 322 
315 316 
315 323 
316 317 
316 324 
317 318 
317 325 
318 319 
318 326 
319 327 
320 321 
320 328 
321 322 
321 329 
322 323 
322 330 
323 324 
323 331 
324 325 
324 332 
325 326 
325 333 
326 327 
326 334 
327 335 
328 329 
328 336 
329 330 
329 337 
330 331 
330 338 
331 332 
331 339 
332 333 
332 340 
333 334 
333 341 
334 335 
334 342 
335 343 
336 337 
336 344 
337 338 
337 345 
338 339 
338 346 
339 340 
339 347 
340 341 
340 348 
341 342 
341 349 
342 343 
342 350 
343 351 
344 345 
344 352 
345 346 
345 353 
346 347 
346 354 
347 348 
347 355 
348 349 
348 356 
349 350 
349 357 
350 351 
350 358 
351 359 
352 353 
352 360 
353 354 
353 361 
354 355 
354 362 
355 356 
355 363 
356 357 
356 364 
357 358 
357 365 
358 359 
358 366 
359 367 
360 361 
360 368 
361 362 
361 369 
362 363 
362 370 
363 364 
363 371 
364 365 
364 372 
365 366 
365 373 
366 367 
366 374 
367 375 
368 369 
368 376 
369 370 
369 377 
370 371 
370 378 
371 372 
371 379 
372 373 
372 380 
373 374 
373 381 
374 375 
374 382 
375 383 
376 377 
376 384 
377 378 
377 385 
378 379 
378 386 
379 380 
379 387 
380 381 
380 388 
381 382 
381 389 
382 383 
382 390 
383 391 
384 385 
384 392 
385 386 
385 393 
386 387 
386 394 
387 388 
387 395 
388 389 
388 396 
389 390 
389 397 
390 391 
390 398 
391 399 
392 393 
392 400 
393 394 
393 401 
394 395 
394 402 
395 396 
395 403 
396 397 
396 404 
397 398 
397 405 
398 399 
398 406 
399 407 
400 401 
400 408 
401 402 
401 409 
402 403 
402 410 
403 404 
403 411 
404 405 
404 412 
405 406 
405 413 
406 407 
406 414 
407 415 
408 409 
408 416 
409 410 
409 417 
410 411 
410 418 
411 412 
411 419 
412 413 
412 420 
413 414 
413 421 
414 415 
414 422 
415 423 
416 417 
416 424 
417 418 
417 425 
418 419 
418 426 
419 420 
419 427 
420 421 
420 428 
421 422 
421 429 
422 423 
422 430 
423 431 
424 425 
424 432 
425 426 
425 433 
426 427 
426 434 
427 428 
427 435 
428 429 
428 436 
429 430 
429 437 
430 431 
430 438 
431 439 
432 433 
432 440 
433 434 
433 441 
434 435 
434 442 
435 436 
435 443 
436 437 
436 444 
437 438 
437 445 
438 439 
438 446 
439 447 
440 441 
440 448 
441 442 
441 449 
442 443 
442 450 
443 444 
443 451 
444 445 
444 452 
445 446 
445 453 
446 447 
446 454 
447 455 
448 449 
448 456 
449 450 
449 457 
450 451 
450 458 
451 452 
451 459 
452 453 
452 460 
453 454 
453 461 
454 455 
454 462 
455 463 
456 457 
457 458 
458 459 
459 460 
460 461 
461 462 
462 463 
