ply
format ascii 1.0
comment VCGLIB generated
element vertex 441
property double x
property double y
property double z
property double nx
property double ny
property double nz
property uchar red
property uchar green
property uchar blue
property uchar alpha
element face 408
property list uchar int vertex_indices
element edge 848
property int vertex1
property int vertex2
end_header
12.22213583900226 -3.466451879818595 0 0 0 1 255 255 255 255 
10.97958583900227 -3.009841879818595 0 0 0 1 255 255 255 255 
10.43056583900226 -4.393451879818596 0 0 0 1 255 255 255 255 
11.77456583900226 -4.945831879818595 0 0 0 1 255 255 255 255 
11.44877683900226 -1.740461879818595 0 0 0 1 255 255 255 255 
12.52809683900226 -2.050081879818595 0 0 0 1 255 255 255 255 
9.831966839002265 -2.388581879818595 0 0 0 1 255 255 255 255 
9.148465839002265 -3.750701879818595 0 0 0 1 255 255 255 255 
9.812105839002264 -5.858721879818596 0 0 0 1 255 255 255 255 
11.25922583900226 -6.457641879818595 0 0 0 1 255 255 255 255 
13.19391683900226 -5.440321879818596 0 0 0 1 255 255 255 255 
13.60878583900226 -3.856931879818595 0 0 0 1 255 255 255 255 
10.49260683900226 -1.097333879818595 0 0 0 1 255 255 255 255 
13.76438683900227 -2.242881879818595 0 0 0 1 255 255 255 255 
12.68647583900226 -0.726721879818595 0 0 0 1 255 255 255 255 
11.79819583900226 -0.808988879818595 0 0 0 1 255 255 255 255 
8.699756839002264 -1.693706879818595 0 0 0 1 255 255 255 255 
7.950235839002265 -2.990501879818595 0 0 0 1 255 255 255 255 
8.390456839002264 -5.172871879818596 0 0 0 1 255 255 255 255 
9.166036839002265 -7.384791879818596 0 0 0 1 255 255 255 255 
10.65684583900226 -7.994891879818596 0 0 0 1 255 255 255 255 
12.77905583900226 -7.023721879818595 0 0 0 1 255 255 255 255 
11.26368683900226 0.06346612018140491 0 0 0 1 255 255 255 255 
9.427865839002264 -0.2724898798185951 0 0 0 1 255 255 255 255 
13.91998583900226 -0.628832879818595 0 0 0 1 255 255 255 255 
12.50270583900226 0.574288120181405 0 0 0 1 255 255 255 255 
7.588775839002266 -1.055497879818595 0 0 0 1 255 255 255 255 
6.817115839002265 -2.234021879818595 0 0 0 1 255 255 255 255 
7.128235839002266 -4.281261879818596 0 0 0 1 255 255 255 255 
7.457405839002266 -6.800041879818595 0 0 0 1 255 255 255 255 
8.702945839002265 -8.882011879818595 0 0 0 1 255 255 255 255 
10.06063683900226 -9.510021879818595 0 0 0 1 255 255 255 255 
12.13192583900226 -8.625971879818595 0 0 0 1 255 255 255 255 
10.24670583900226 1.578348120181405 0 0 0 1 255 255 255 255 
8.235835839002265 0.1235561201814049 0 0 0 1 255 255 255 255 
13.88168683900227 0.9108481201814049 0 0 0 1 255 255 255 255 
12.17445583900227 2.061428120181405 0 0 0 1 255 255 255 255 
6.572425839002265 -0.4118188798185951 0 0 0 1 255 255 255 255 
5.763815839002265 -1.442315879818595 0 0 0 1 255 255 255 255 
5.972935839002266 -3.389161879818595 0 0 0 1 255 255 255 255 
6.200555839002265 -5.532631879818595 0 0 0 1 255 255 255 255 
7.422586839002265 -8.412651879818595 0 0 0 1 255 255 255 255 
8.129916839002265 -10.2438708798186 0 0 0 1 255 255 255 255 
9.368595839002264 -10.92951187981859 0 0 0 1 255 255 255 255 
11.48480583900226 -10.2282218798186 0 0 0 1 255 255 255 255 
8.624965839002265 1.335258120181405 0 0 0 1 255 255 255 255 
7.273586839002266 0.5437381201814049 0 0 0 1 255 255 255 255 
13.84348583900226 2.450538120181405 0 0 0 1 255 255 255 255 
10.70047583900226 3.410768120181405 0 0 0 1 255 255 255 255 
12.08446583900226 3.640298120181405 0 0 0 1 255 255 255 255 
5.656485839002265 0.3600481201814049 0 0 0 1 255 255 255 255 
4.775666839002265 -0.6017538798185951 0 0 0 1 255 255 255 255 
4.892215839002265 -2.517091879818595 0 0 0 1 255 255 255 255 
5.065646839002265 -4.528911879818596 0 0 0 1 255 255 255 255 
5.149275839002265 -6.534391879818595 0 0 0 1 255 255 255 255 
6.070916839002265 -7.507371879818596 0 0 0 1 255 255 255 255 
6.976216839002265 -9.639831879818596 0 0 0 1 255 255 255 255 
6.507466839002265 -8.335291879818595 0 0 0 1 255 255 255 255 
7.426166839002266 -11.5181118798186 0 0 0 1 255 255 255 255 
8.599945839002265 -12.28701187981859 0 0 0 1 255 255 255 255 
10.66627583900226 -11.69311187981859 0 0 0 1 255 255 255 255 
9.242666839002265 2.895368120181405 0 0 0 1 255 255 255 255 
8.203876839002264 2.390638120181405 0 0 0 1 255 255 255 255 
7.738695839002266 1.254688120181405 0 0 0 1 255 255 255 255 
6.486425839002266 1.217838120181405 0 0 0 1 255 255 255 255 
13.57802583900227 3.952078120181405 0 0 0 1 255 255 255 255 
9.838836839002264 3.617908120181405 0 0 0 1 255 255 255 255 
11.86334583900226 5.125218120181405 0 0 0 1 255 255 255 255 
10.58489583900226 4.811268120181404 0 0 0 1 255 255 255 255 
4.775666839002265 1.242308120181405 0 0 0 1 255 255 255 255 
3.834164839002265 0.3168781201814049 0 0 0 1 255 255 255 255 
3.868216839002265 -1.613377879818595 0 0 0 1 255 255 255 255 
3.983626839002265 -3.589291879818595 0 0 0 1 255 255 255 255 
4.107699839002265 -5.584531879818595 0 0 0 1 255 255 255 255 
4.189690839002266 -7.526011879818595 0 0 0 1 255 255 255 255 
5.146975839002265 -8.378470879818595 0 0 0 1 255 255 255 255 
5.986595839002265 -9.122011879818595 0 0 0 1 255 255 255 255 
6.315925839002265 -10.82731187981859 0 0 0 1 255 255 255 255 
6.629805839002265 -12.74461087981859 0 0 0 1 255 255 255 255 
7.734716839002265 -13.5342118798186 0 0 0 1 255 255 255 255 
9.847745839002265 -13.1579118798186 0 0 0 1 255 255 255 255 
8.612685839002264 4.000759120181405 0 0 0 1 255 255 255 255 
7.620046839002264 3.427448120181405 0 0 0 1 255 255 255 255 
7.285526839002265 1.917008120181405 0 0 0 1 255 255 255 255 
5.711115839002265 2.084358120181405 0 0 0 1 255 255 255 255 
13.31258583900226 5.453628120181405 0 0 0 1 255 255 255 255 
9.540036839002264 4.528139120181405 0 0 0 1 255 255 255 255 
10.20080583900226 6.146368120181404 0 0 0 1 255 255 255 255 
11.44972583900226 6.598418120181405 0 0 0 1 255 255 255 255 
3.916100839002265 2.219878120181405 0 0 0 1 255 255 255 255 
2.922046839002265 1.298808120181405 0 0 0 1 255 255 255 255 
2.888294839002265 -0.672934879818595 0 0 0 1 255 255 255 255 
2.948131839002265 -2.660271879818595 0 0 0 1 255 255 255 255 
3.060315839002265 -4.656551879818595 0 0 0 1 255 255 255 255 
3.177445839002266 -6.633071879818595 0 0 0 1 255 255 255 255 
3.290754839002266 -8.573141879818595 0 0 0 1 255 255 255 255 
4.290571839002265 -9.399301879818596 0 0 0 1 255 255 255 255 
5.280335839002265 -10.1454518798186 0 0 0 1 255 255 255 255 
5.545155839002265 -12.0000118798186 0 0 0 1 255 255 255 255 
5.790716839002266 -13.9109118798186 0 0 0 1 255 255 255 255 
6.836425839002265 -14.7116108798186 0 0 0 1 255 255 255 255 
8.863626839002265 -14.4064118798186 0 0 0 1 255 255 255 255 
8.013645839002264 5.125178120181404 0 0 0 1 255 255 255 255 
6.961445839002265 4.508288120181405 0 0 0 1 255 255 255 255 
6.641225839002265 2.812558120181405 0 0 0 1 255 255 255 255 
4.916645839002265 3.064488120181405 0 0 0 1 255 255 255 255 
12.79592583900226 7.050648120181404 0 0 0 1 255 255 255 255 
9.068826839002265 5.689238120181405 0 0 0 1 255 255 255 255 
10.92119583900226 8.047368120181405 0 0 0 1 255 255 255 255 
9.666565839002265 7.487048120181405 0 0 0 1 255 255 255 255 
3.068291839002265 3.262268120181405 0 0 0 1 255 255 255 255 
2.029105839002265 2.338138120181405 0 0 0 1 255 255 255 255 
1.938995839002265 0.3171381201814049 0 0 0 1 255 255 255 255 
1.945735839002265 -1.702380879818595 0 0 0 1 255 255 255 255 
2.023515839002265 -3.717801879818595 0 0 0 1 255 255 255 255 
2.137855839002265 -5.720501879818595 0 0 0 1 255 255 255 255 
2.261955839002265 -7.703021879818595 0 0 0 1 255 255 255 255 
2.388665839002265 -9.679720879818595 0 0 0 1 255 255 255 255 
3.435890839002266 -10.5034608798186 0 0 0 1 255 255 255 255 
4.479693839002265 -11.2766118798186 0 0 0 1 255 255 255 255 
4.725115839002266 -13.18101187981859 0 0 0 1 255 255 255 255 
4.960905839002265 -15.0235118798186 0 0 0 1 255 255 255 255 
5.933655839002265 -15.73431187981859 0 0 0 1 255 255 255 255 
7.879516839002265 -15.65501187981859 0 0 0 1 255 255 255 255 
7.368205839002266 6.298328120181405 0 0 0 1 255 255 255 255 
6.270975839002265 5.628148120181405 0 0 0 1 255 255 255 255 
5.931865839002265 3.825688120181405 0 0 0 1 255 255 255 255 
4.121160839002266 4.119388120181404 0 0 0 1 255 255 255 255 
12.27926683900226 8.647679120181404 0 0 0 1 255 255 255 255 
8.493245839002265 6.911188120181404 0 0 0 1 255 255 255 255 
9.029285839002265 8.803249120181405 0 0 0 1 255 255 255 255 
10.27338583900226 9.451989120181405 0 0 0 1 255 255 255 255 
2.228155839002265 4.355448120181404 0 0 0 1 255 255 255 255 
1.145875839002265 3.423298120181405 0 0 0 1 255 255 255 255 
1.010275839002265 1.349968120181405 0 0 0 1 255 255 255 255 
0.9728058390022649 -0.7129208798185951 0 0 0 1 255 255 255 255 
1.013935839002265 -2.760651879818595 0 0 0 1 255 255 255 255 
1.110075839002265 -4.790471879818595 0 0 0 1 255 255 255 255 
1.235175839002265 -6.800111879818595 0 0 0 1 255 255 255 255 
1.364355839002265 -8.798231879818596 0 0 0 1 255 255 255 255 
1.469725839002265 -10.8238118798186 0 0 0 1 255 255 255 255 
2.546585839002265 -11.6745118798186 0 0 0 1 255 255 255 255 
3.643627839002265 -12.4451118798186 0 0 0 1 255 255 255 255 
3.910766839002266 -14.3461118798186 0 0 0 1 255 255 255 255 
4.204778839002265 -16.08121287981859 0 0 0 1 255 255 255 255 
5.092865839002266 -16.64070987981859 0 0 0 1 255 255 255 255 
6.843895839002266 -16.57011187981859 0 0 0 1 255 255 255 255 
6.684495839002265 7.484619120181405 0 0 0 1 255 255 255 255 
5.549435839002265 6.779298120181404 0 0 0 1 255 255 255 255 
5.186265839002266 4.906908120181405 0 0 0 1 255 255 255 255 
3.324959839002266 5.220858120181405 0 0 0 1 255 255 255 255 
11.57904683900226 10.1166881201814 0 0 0 1 255 255 255 255 
7.837595839002266 8.158059120181404 0 0 0 1 255 255 255 255 
9.551126839002265 10.82058812018141 0 0 0 1 255 255 255 255 
8.313665839002265 10.0992881201814 0 0 0 1 255 255 255 255 
1.392915839002265 5.488298120181405 0 0 0 1 255 255 255 255 
0.251255839002265 4.560458120181405 0 0 0 1 255 255 255 255 
0.08064583900226507 2.427928120181405 0 0 0 1 255 255 255 255 
0.01432583900226514 0.3132581201814049 0 0 0 1 255 255 255 255 
0.02331583900226519 -1.772951879818595 0 0 0 1 255 255 255 255 
0.09309583900226515 -3.834021879818595 0 0 0 1 255 255 255 255 
0.2057258390022652 -5.871871879818595 0 0 0 1 255 255 255 255 
0.3385458390022651 -7.890981879818596 0 0 0 1 255 255 255 255 
0.451775839002265 -9.906741879818595 0 0 0 1 255 255 255 255 
0.4597458390022651 -12.01791187981859 0 0 0 1 255 255 255 255 
1.633295839002265 -12.8954118798186 0 0 0 1 255 255 255 255 
2.793732839002265 -13.6591118798186 0 0 0 1 255 255 255 255 
3.149814839002265 -15.53041087981859 0 0 0 1 255 255 255 255 
3.614042839002265 -17.13951087981859 0 0 0 1 255 255 255 255 
4.424522839002266 -17.24991187981859 0 0 0 1 255 255 255 255 
5.808285839002266 -17.4851108798186 0 0 0 1 255 255 255 255 
5.960765839002265 8.676938120181404 0 0 0 1 255 255 255 255 
4.810825839002265 7.939659120181404 0 0 0 1 255 255 255 255 
4.431619839002265 6.026588120181405 0 0 0 1 255 255 255 255 
2.528685839002265 6.355808120181405 0 0 0 1 255 255 255 255 
10.87882583900226 11.58568812018141 0 0 0 1 255 255 255 255 
7.125756839002265 9.390588120181405 0 0 0 1 255 255 255 255 
7.528566839002266 11.3538881201814 0 0 0 1 255 255 255 255 
8.721655839002265 12.1333881201814 0 0 0 1 255 255 255 255 
0.554675839002265 6.665348120181404 0 0 0 1 255 255 255 255 
-0.6553441609977348 5.758208120181405 0 0 0 1 255 255 255 255 
-0.8715241609977349 3.551878120181405 0 0 0 1 255 255 255 255 
-0.9436741609977349 1.369128120181405 0 0 0 1 255 255 255 255 
-0.9531341609977348 -0.758623879818595 0 0 0 1 255 255 255 255 
-0.906414160997735 -2.852371879818595 0 0 0 1 255 255 255 255 
-0.811463160997735 -4.917790879818595 0 0 0 1 255 255 255 255 
-0.6818631609977349 -6.957551879818595 0 0 0 1 255 255 255 255 
-0.5458941609977349 -8.973430879818595 0 0 0 1 255 255 255 255 
-0.4814441609977349 -10.9813108798186 0 0 0 1 255 255 255 255 
-0.7984531609977349 -13.3176108798186 0 0 0 1 255 255 255 255 
0.699775839002265 -14.2139118798186 0 0 0 1 255 255 255 255 
1.981905839002265 -14.9187108798186 0 0 0 1 255 255 255 255 
2.499835839002265 -16.7516108798186 0 0 0 1 255 255 255 255 
3.327187839002265 -18.4626118798186 0 0 0 1 255 255 255 255 
4.567735839002265 -17.9739108798186 0 0 0 1 255 255 255 255 
5.208485839002265 9.856288120181405 0 0 0 1 255 255 255 255 
4.054524839002266 9.102229120181404 0 0 0 1 255 255 255 255 
3.667871839002265 7.169478120181404 0 0 0 1 255 255 255 255 
1.737035839002265 7.516038120181404 0 0 0 1 255 255 255 255 
9.963155839002264 12.9506891201814 0 0 0 1 255 255 255 255 
6.362195839002266 10.6012881201814 0 0 0 1 255 255 255 255 
7.831295839002265 13.3951891201814 0 0 0 1 255 255 255 255 
6.687305839002265 12.55948912018141 0 0 0 1 255 255 255 255 
-0.2545041609977349 7.884239120181404 0 0 0 1 255 255 255 255 
-1.554204160997735 7.045538120181405 0 0 0 1 255 255 255 255 
-1.902184160997735 4.763198120181404 0 0 0 1 255 255 255 255 
-1.932164160997735 2.458488120181405 0 0 0 1 255 255 255 255 
-1.932953160997735 0.2814381201814049 0 0 0 1 255 255 255 255 
-1.897113160997735 -1.845541879818595 0 0 0 1 255 255 255 255 
-1.819513160997735 -3.939071879818595 0 0 0 1 255 255 255 255 
-1.702354160997735 -6.004061879818595 0 0 0 1 255 255 255 255 
-1.556944160997735 -8.038761879818596 0 0 0 1 255 255 255 255 
-1.424364160997735 -10.0267418798186 0 0 0 1 255 255 255 255 
-1.442484160997735 -11.9342108798186 0 0 0 1 255 255 255 255 
-1.409974160997735 -15.0755118798186 0 0 0 1 255 255 255 255 
-0.03246416099773497 -15.6853118798186 0 0 0 1 255 255 255 255 
1.264655839002265 -16.2646118798186 0 0 0 1 255 255 255 255 
1.966095839002265 -18.0738118798186 0 0 0 1 255 255 255 255 
4.433423839002265 11.0169881201814 0 0 0 1 255 255 255 255 
3.288833839002265 10.2602891201814 0 0 0 1 255 255 255 255 
2.898026839002265 8.325748120181405 0 0 0 1 255 255 255 255 
0.9523258390022653 8.699378120181404 0 0 0 1 255 255 255 255 
9.047475839002264 14.3156881201814 0 0 0 1 255 255 255 255 
5.564865839002265 11.7765881201814 0 0 0 1 255 255 255 255 
5.806375839002265 13.6933881201814 0 0 0 1 255 255 255 255 
6.850695839002265 14.5581881201814 0 0 0 1 255 255 255 255 
-0.9958841609977349 9.125119120181404 0 0 0 1 255 255 255 255 
-2.204264160997735 8.378648120181404 0 0 0 1 255 255 255 255 
-3.115084160997735 6.170528120181404 0 0 0 1 255 255 255 255 
-2.980954160997735 3.566108120181405 0 0 0 1 255 255 255 255 
-2.933344160997735 1.332998120181405 0 0 0 1 255 255 255 255 
-2.887594160997735 -0.822054879818595 0 0 0 1 255 255 255 255 
-2.818244160997735 -2.938641879818595 0 0 0 1 255 255 255 255 
-2.715674160997735 -5.025161879818596 0 0 0 1 255 255 255 255 
-2.576954160997735 -7.081131879818596 0 0 0 1 255 255 255 255 
-2.412724160997735 -9.089971879818595 0 0 0 1 255 255 255 255 
-2.271554160997735 -10.9907118798186 0 0 0 1 255 255 255 255 
-2.342584160997735 -13.2997118798186 0 0 0 1 255 255 255 255 
-2.255224160997735 -12.3723108798186 0 0 0 1 255 255 255 255 
-2.819224160997735 -14.6081118798186 0 0 0 1 255 255 255 255 
-2.008614160997735 -16.66151187981859 0 0 0 1 255 255 255 255 
-0.7018041609977349 -17.17331087981859 0 0 0 1 255 255 255 255 
0.605005839002265 -17.6851118798186 0 0 0 1 255 255 255 255 
3.655527839002265 12.1534891201814 0 0 0 1 255 255 255 255 
2.527016839002265 11.4112891201814 0 0 0 1 255 255 255 255 
2.130495839002265 9.490689120181404 0 0 0 1 255 255 255 255 
0.198615839002265 9.897788120181405 0 0 0 1 255 255 255 255 
7.932165839002265 15.50998912018141 0 0 0 1 255 255 255 255 
4.747745839002265 12.9032881201814 0 0 0 1 255 255 255 255 
5.824735839002265 15.6225881201814 0 0 0 1 255 255 255 255 
4.916185839002265 14.7263881201814 0 0 0 1 255 255 255 255 
-1.720744160997735 10.3531881201814 0 0 0 1 255 255 255 255 
-2.886794160997735 9.610789120181405 0 0 0 1 255 255 255 255 
-3.401974160997735 7.746338120181405 0 0 0 1 255 255 255 255 
-4.134754160997735 4.665418120181404 0 0 0 1 255 255 255 255 
-3.981484160997735 2.389988120181405 0 0 0 1 255 255 255 255 
-3.895424160997734 0.2120551201814049 0 0 0 1 255 255 255 255 
-3.816693160997735 -1.922931879818595 0 0 0 1 255 255 255 255 
-3.722184160997735 -4.027571879818596 0 0 0 1 255 255 255 255 
-3.597844160997735 -6.105221879818595 0 0 0 1 255 255 255 255 
-3.433714160997735 -8.146681879818596 0 0 0 1 255 255 255 255 
-3.234294160997734 -10.1092318798186 0 0 0 1 255 255 255 255 
-3.006024160997735 -11.8437118798186 0 0 0 1 255 255 255 255 
-3.539254160997735 -12.8408108798186 0 0 0 1 255 255 255 255 
-4.135064160997735 -14.02971087981859 0 0 0 1 255 255 255 255 
-3.408023160997735 -16.0016108798186 0 0 0 1 255 255 255 255 
2.900827839002265 13.2605881201814 0 0 0 1 255 255 255 255 
1.786435839002265 12.5570881201814 0 0 0 1 255 255 255 255 
1.371015839002265 10.6614881201814 0 0 0 1 255 255 255 255 
-0.5428941609977349 11.1005881201814 0 0 0 1 255 255 255 255 
6.816855839002265 16.7041881201814 0 0 0 1 255 255 255 255 
3.950980839002265 13.96988812018141 0 0 0 1 255 255 255 255 
4.076330839002265 15.5974891201814 0 0 0 1 255 255 255 255 
4.704945839002265 16.48048812018141 0 0 0 1 255 255 255 255 
-2.459384160997735 11.5793881201814 0 0 0 1 255 255 255 255 
-3.627924160997735 10.8245881201814 0 0 0 1 255 255 255 255 
-3.992983160997735 8.917018120181405 0 0 0 1 255 255 255 255 
-4.620754160997735 6.656168120181404 0 0 0 1 255 255 255 255 
-4.317763160997734 7.552888120181405 0 0 0 1 255 255 255 255 
-5.380224160997734 5.510738120181404 0 0 0 1 255 255 255 255 
-5.091394160997734 3.410169120181405 0 0 0 1 255 255 255 255 
-4.935053160997735 1.235808120181405 0 0 0 1 255 255 255 255 
-4.824554160997735 -0.904278879818595 0 0 0 1 255 255 255 255 
-4.723734160997735 -3.016411879818595 0 0 0 1 255 255 255 255 
-4.611543160997735 -5.105321879818596 0 0 0 1 255 255 255 255 
-4.467014160997735 -7.169501879818595 0 0 0 1 255 255 255 255 
-4.270054160997735 -9.187271879818596 0 0 0 1 255 255 255 255 
-4.001164160997735 -11.09361087981859 0 0 0 1 255 255 255 255 
-4.693734160997735 -12.14631087981859 0 0 0 1 255 255 255 255 
-5.398834160997735 -13.2956118798186 0 0 0 1 255 255 255 255 
-4.807434160997735 -15.34171187981859 0 0 0 1 255 255 255 255 
2.209415839002265 14.34538912018141 0 0 0 1 255 255 255 255 
1.092985839002265 13.7034891201814 0 0 0 1 255 255 255 255 
0.633405839002265 11.8382891201814 0 0 0 1 255 255 255 255 
-1.266544160997735 12.3183881201814 0 0 0 1 255 255 255 255 
5.318765839002265 17.6336881201814 0 0 0 1 255 255 255 255 
3.228504839002265 14.9570881201814 0 0 0 1 255 255 255 255 
3.599498839002266 17.0511881201814 0 0 0 1 255 255 255 255 
3.451036839002265 16.18638812018141 0 0 0 1 255 255 255 255 
-3.202933160997735 12.8352881201814 0 0 0 1 255 255 255 255 
-4.410014160997735 12.0595881201814 0 0 0 1 255 255 255 255 
-4.744454160997735 10.0531891201814 0 0 0 1 255 255 255 255 
-4.942383160997735 8.275608120181404 0 0 0 1 255 255 255 255 
-5.702664160997735 7.410708120181405 0 0 0 1 255 255 255 255 
-6.530513160997734 6.381048120181404 0 0 0 1 255 255 255 255 
-6.251423160997735 4.352358120181405 0 0 0 1 255 255 255 255 
-6.019813160997734 2.238388120181405 0 0 0 1 255 255 255 255 
-5.857664160997735 0.1065921201814049 0 0 0 1 255 255 255 255 
-5.731434160997734 -2.004021879818595 0 0 0 1 255 255 255 255 
-5.618084160997735 -4.093951879818595 0 0 0 1 255 255 255 255 
-5.493233160997734 -6.169101879818595 0 0 0 1 255 255 255 255 
-5.324343160997735 -8.223721879818596 0 0 0 1 255 255 255 255 
-5.075634160997735 -10.2280808798186 0 0 0 1 255 255 255 255 
-5.863574160997735 -11.2985118798186 0 0 0 1 255 255 255 255 
-6.648314160997734 -12.4474118798186 0 0 0 1 255 255 255 255 
-6.121594160997735 -14.5351118798186 0 0 0 1 255 255 255 255 
1.625275839002265 15.4313891201814 0 0 0 1 255 255 255 255 
0.463465839002265 14.8733891201814 0 0 0 1 255 255 255 255 
-0.076734160997735 13.0281881201814 0 0 0 1 255 255 255 255 
-1.974954160997735 13.5629891201814 0 0 0 1 255 255 255 255 
3.820677839002265 18.5630881201814 0 0 0 1 255 255 255 255 
2.679977839002265 15.8902881201814 0 0 0 1 255 255 255 255 
2.422635839002265 16.9478881201814 0 0 0 1 255 255 255 255 
-3.951543160997735 14.1370881201814 0 0 0 1 255 255 255 255 
-5.215053160997734 13.3476881201814 0 0 0 1 255 255 255 255 
-5.578034160997735 11.2437881201814 0 0 0 1 255 255 255 255 
-5.776574160997734 9.256428120181404 0 0 0 1 255 255 255 255 
-6.716014160997735 8.345278120181405 0 0 0 1 255 255 255 255 
-7.648314160997734 7.323569120181404 0 0 0 1 255 255 255 255 
-7.412014160997734 5.273088120181405 0 0 0 1 255 255 255 255 
-7.145613160997734 3.193828120181405 0 0 0 1 255 255 255 255 
-6.923013160997734 1.090028120181405 0 0 0 1 255 255 255 255 
-6.752313160997734 -1.006535879818595 0 0 0 1 255 255 255 255 
-6.618414160997735 -3.083131879818595 0 0 0 1 255 255 255 255 
-6.502814160997735 -5.149251879818595 0 0 0 1 255 255 255 255 
-6.371554160997735 -7.214201879818595 0 0 0 1 255 255 255 255 
-6.176314160997735 -9.269230879818595 0 0 0 1 255 255 255 255 
-7.028714160997735 -10.3346718798186 0 0 0 1 255 255 255 255 
-7.902414160997735 -11.4388118798186 0 0 0 1 255 255 255 255 
-7.435713160997735 -13.72851087981859 0 0 0 1 255 255 255 255 
1.158075839002265 16.59978912018141 0 0 0 1 255 255 255 255 
-0.09969416099773487 16.0946891201814 0 0 0 1 255 255 255 255 
-0.744064160997735 14.2460881201814 0 0 0 1 255 255 255 255 
-2.662944160997735 14.8515891201814 0 0 0 1 255 255 255 255 
2.257695839002265 18.23488812018141 0 0 0 1 255 255 255 255 
-4.711834160997735 15.5152881201814 0 0 0 1 255 255 255 255 
-6.035574160997735 14.6900891201814 0 0 0 1 255 255 255 255 
-6.450714160997735 12.5020881201814 0 0 0 1 255 255 255 255 
-6.686714160997735 10.36138912018141 0 0 0 1 255 255 255 255 
-7.744914160997735 9.398888120181404 0 0 0 1 255 255 255 255 
-8.759714160997735 8.342068120181404 0 0 0 1 255 255 255 255 
-8.568814160997736 6.217598120181405 0 0 0 1 255 255 255 255 
-8.295813160997735 4.125958120181404 0 0 0 1 255 255 255 255 
-8.026814160997736 2.038928120181405 0 0 0 1 255 255 255 255 
-7.803114160997735 -0.0397858798185951 0 0 0 1 255 255 255 255 
-7.629314160997735 -2.094191879818595 0 0 0 1 255 255 255 255 
-7.500114160997735 -4.131801879818595 0 0 0 1 255 255 255 255 
-7.393513160997735 -6.179471879818595 0 0 0 1 255 255 255 255 
-7.258414160997734 -8.250041879818596 0 0 0 1 255 255 255 255 
-8.168414160997735 -9.288361879818595 0 0 0 1 255 255 255 255 
-9.123714160997736 -10.35373187981859 0 0 0 1 255 255 255 255 
-8.800113160997736 -12.5986108798186 0 0 0 1 255 255 255 255 
0.6947158390022652 17.9065881201814 0 0 0 1 255 255 255 255 
-0.638384160997735 17.3844871201814 0 0 0 1 255 255 255 255 
-1.373284160997735 15.5151891201814 0 0 0 1 255 255 255 255 
-3.341664160997735 16.1887881201814 0 0 0 1 255 255 255 255 
-7.359314160997735 13.86478812018141 0 0 0 1 255 255 255 255 
-7.641614160997735 11.55758812018141 0 0 0 1 255 255 255 255 
-8.792413160997736 10.5428881201814 0 0 0 1 255 255 255 255 
-9.894913160997735 9.432588120181405 0 0 0 1 255 255 255 255 
-9.745014160997735 7.196208120181405 0 0 0 1 255 255 255 255 
-9.469914160997735 5.043788120181405 0 0 0 1 255 255 255 255 
-9.161013160997735 2.951258120181405 0 0 0 1 255 255 255 255 
-8.882614160997734 0.8854581201814049 0 0 0 1 255 255 255 255 
-8.653514160997736 -1.147434879818595 0 0 0 1 255 255 255 255 
-8.482813160997734 -3.143191879818595 0 0 0 1 255 255 255 255 
-8.377814160997735 -5.140151879818595 0 0 0 1 255 255 255 255 
-8.299114160997735 -7.185911879818596 0 0 0 1 255 255 255 255 
-9.247513160997736 -8.182461879818595 0 0 0 1 255 255 255 255 
-10.25181416099774 -9.198771879818596 0 0 0 1 255 255 255 255 
-10.16451316099774 -11.4688118798186 0 0 0 1 255 255 255 255 
-1.971494160997735 16.8622881201814 0 0 0 1 255 255 255 255 
-8.620614160997736 12.8218881201814 0 0 0 1 255 255 255 255 
-9.881914160997736 11.7789881201814 0 0 0 1 255 255 255 255 
-11.05671416099774 10.5969881201814 0 0 0 1 255 255 255 255 
-10.95501416099774 8.238168120181404 0 0 0 1 255 255 255 255 
-10.67721316099774 5.960778120181405 0 0 0 1 255 255 255 255 
-10.32821316099774 3.829608120181405 0 0 0 1 255 255 255 255 
-9.996614160997735 1.764228120181405 0 0 0 1 255 255 255 255 
-9.715514160997735 -0.2605898798185951 0 0 0 1 255 255 255 255 
-9.479414160997736 -2.218881879818595 0 0 0 1 255 255 255 255 
-9.331914160997735 -4.132441879818596 0 0 0 1 255 255 255 255 
-9.285714160997735 -6.101511879818595 0 0 0 1 255 255 255 255 
-10.25131416099773 -7.033221879818595 0 0 0 1 255 255 255 255 
-11.30981416099774 -7.984231879818596 0 0 0 1 255 255 255 255 
-11.31901316099774 -10.2579018798186 0 0 0 1 255 255 255 255 
-12.23151416099773 9.415088120181405 0 0 0 1 255 255 255 255 
-11.94001416099774 6.888508120181404 0 0 0 1 255 255 255 255 
-11.54191416099774 4.672378120181405 0 0 0 1 255 255 255 255 
-11.13031416099774 2.601728120181405 0 0 0 1 255 255 255 255 
-10.80451416099774 0.579748120181405 0 0 0 1 255 255 255 255 
-10.50811416099774 -1.383582879818595 0 0 0 1 255 255 255 255 
-10.25151416099774 -3.214801879818595 0 0 0 1 255 255 255 255 
-10.18841316099773 -5.035431879818596 0 0 0 1 255 255 255 255 
-11.15481316099774 -5.845471879818596 0 0 0 1 255 255 255 255 
-12.24981416099773 -6.652340879818595 0 0 0 1 255 255 255 255 
-12.47341416099774 -9.046951879818595 0 0 0 1 255 255 255 255 
-13.27341316099774 7.847588120181404 0 0 0 1 255 255 255 255 
-12.84501316099774 5.484548120181405 0 0 0 1 255 255 255 255 
-12.30891416099774 3.369258120181405 0 0 0 1 255 255 255 255 
-11.88421416099774 1.389338120181405 0 0 0 1 255 255 255 255 
-11.62151416099774 -0.622319879818595 0 0 0 1 255 255 255 255 
-11.21751416099774 -2.465791879818595 0 0 0 1 255 255 255 255 
-10.97881416099774 -4.056470879818596 0 0 0 1 255 255 255 255 
-11.90411316099773 -4.664801879818596 0 0 0 1 255 255 255 255 
-13.06391416099773 -5.291711879818595 0 0 0 1 255 255 255 255 
-13.46551416099773 -7.481601879818595 0 0 0 1 255 255 255 255 
-14.31541316099774 6.280088120181404 0 0 0 1 255 255 255 255 
-13.57351416099774 4.071118120181405 0 0 0 1 255 255 255 255 
-12.97661516099773 2.095278120181405 0 0 0 1 255 255 255 255 
-12.60881316099774 0.2526051201814049 0 0 0 1 255 255 255 255 
-12.54171416099773 -1.955621879818595 0 0 0 1 255 255 255 255 
-11.53771416099774 -3.326171879818595 0 0 0 1 255 255 255 255 
-12.41001416099774 -3.468161879818595 0 0 0 1 255 255 255 255 
-13.62761416099774 -3.940131879818595 0 0 0 1 255 255 255 255 
-14.45761416099774 -5.916261879818595 0 0 0 1 255 255 255 255 
-14.95241416099774 4.742728120181405 0 0 0 1 255 255 255 255 
-14.18261416099774 2.661808120181405 0 0 0 1 255 255 255 255 
-13.52131316099774 0.9206581201814049 0 0 0 1 255 255 255 255 
-13.39471316099774 -0.7154378798185951 0 0 0 1 255 255 255 255 
-14.04791316099774 -2.535771879818595 0 0 0 1 255 255 255 255 
-14.97901416099774 -4.470701879818596 0 0 0 1 255 255 255 255 
-15.58951416099774 3.205358120181405 0 0 0 1 255 255 255 255 
-14.58201316099774 1.261808120181405 0 0 0 1 255 255 255 255 
-13.90091416099774 0.06253212018140492 0 0 0 1 255 255 255 255 
-14.50631416099774 -1.226663879818595 0 0 0 1 255 255 255 255 
-15.50041516099774 -3.025131879818595 0 0 0 1 255 255 255 255 
-15.84111316099774 1.482808120181405 0 0 0 1 255 255 255 255 
-14.77331416099774 -0.03534787981859509 0 0 0 1 255 255 255 255 
-15.79661416099774 -1.632437879818595 0 0 0 1 255 255 255 255 
-16.09281416099773 -0.2397478798185951 0 0 0 1 255 255 255 255 
3 1 2 3 
3 1 0 5 
3 1 6 7 
3 8 9 3 
3 11 0 3 
3 1 4 12 
3 11 13 5 
3 15 4 5 
3 16 17 7 
3 8 2 7 
3 8 19 20 
3 21 10 3 
3 15 22 12 
3 16 6 12 
3 24 14 5 
3 15 14 25 
3 16 26 27 
3 28 18 7 
3 8 18 29 
3 30 31 20 
3 21 9 20 
3 33 23 12 
3 16 23 34 
3 24 35 25 
3 33 22 25 
3 37 38 27 
3 28 17 27 
3 28 40 29 
3 30 19 29 
3 30 42 43 
3 44 32 20 
3 33 45 34 
3 37 26 34 
3 47 36 25 
3 33 36 49 
3 37 50 51 
3 52 39 27 
3 28 39 53 
3 54 55 29 
3 30 41 56 
3 57 41 29 
3 58 59 43 
3 44 31 43 
3 33 61 62 
3 63 46 34 
3 37 46 64 
3 47 65 49 
3 33 48 66 
3 68 48 49 
3 69 70 51 
3 52 38 51 
3 52 72 53 
3 54 40 53 
3 54 74 75 
3 57 76 56 
3 58 42 56 
3 57 55 75 
3 58 78 79 
3 80 60 43 
3 81 82 62 
3 63 45 62 
3 63 83 64 
3 69 50 64 
3 85 67 49 
3 68 86 66 
3 81 61 66 
3 68 67 88 
3 69 89 90 
3 91 71 51 
3 52 71 92 
3 93 73 53 
3 54 73 94 
3 95 96 75 
3 97 77 56 
3 58 77 98 
3 97 76 75 
3 99 100 79 
3 80 59 79 
3 81 102 103 
3 104 83 62 
3 104 84 64 
3 69 84 105 
3 85 106 88 
3 68 87 107 
3 81 86 107 
3 109 87 88 
3 110 111 90 
3 91 70 90 
3 91 113 92 
3 93 72 92 
3 93 115 94 
3 95 74 94 
3 95 117 118 
3 97 119 98 
3 99 78 98 
3 97 96 118 
3 99 121 122 
3 123 101 79 
3 124 125 103 
3 104 82 103 
3 104 126 105 
3 110 89 105 
3 128 108 88 
3 109 129 107 
3 124 102 107 
3 109 108 131 
3 110 132 133 
3 134 112 90 
3 91 112 135 
3 136 114 92 
3 93 114 137 
3 138 116 94 
3 95 116 139 
3 140 141 118 
3 142 120 98 
3 99 120 143 
3 142 119 118 
3 144 145 122 
3 123 100 122 
3 124 147 148 
3 149 126 103 
3 149 127 105 
3 110 127 150 
3 128 151 131 
3 109 130 152 
3 124 129 152 
3 154 130 131 
3 155 156 133 
3 134 111 133 
3 134 158 135 
3 136 113 135 
3 136 160 137 
3 138 115 137 
3 138 162 139 
3 140 117 139 
3 140 164 165 
3 142 166 143 
3 144 121 143 
3 142 141 165 
3 144 168 169 
3 170 146 122 
3 171 172 148 
3 149 125 148 
3 149 173 150 
3 155 132 150 
3 175 153 131 
3 154 176 152 
3 171 147 152 
3 154 153 178 
3 155 179 180 
3 181 157 133 
3 134 157 182 
3 183 159 135 
3 136 159 184 
3 185 161 137 
3 138 161 186 
3 187 163 139 
3 140 163 188 
3 189 190 165 
3 191 167 143 
3 144 167 192 
3 191 166 165 
3 193 194 169 
3 170 145 169 
3 171 195 196 
3 197 173 148 
3 197 174 150 
3 155 174 198 
3 175 199 178 
3 154 177 200 
3 171 176 200 
3 202 177 178 
3 203 204 180 
3 181 156 180 
3 181 206 182 
3 183 158 182 
3 183 208 184 
3 185 160 184 
3 185 210 186 
3 187 162 186 
3 187 212 188 
3 189 164 188 
3 189 214 215 
3 191 216 192 
3 193 168 192 
3 191 190 215 
3 218 219 196 
3 197 172 196 
3 197 220 198 
3 203 179 198 
3 222 201 178 
3 202 223 200 
3 218 195 200 
3 202 201 225 
3 203 226 227 
3 228 205 180 
3 181 205 229 
3 230 207 182 
3 183 207 231 
3 232 209 184 
3 185 209 233 
3 234 211 186 
3 187 211 235 
3 236 213 188 
3 189 213 238 
3 189 237 239 
3 240 241 215 
3 242 217 192 
3 242 216 215 
3 218 243 244 
3 245 220 196 
3 245 221 198 
3 203 221 246 
3 222 247 225 
3 202 224 248 
3 218 223 248 
3 250 224 225 
3 251 252 227 
3 228 204 227 
3 228 254 229 
3 230 206 229 
3 230 256 231 
3 232 208 231 
3 232 258 233 
3 234 210 233 
3 234 260 235 
3 236 212 235 
3 236 262 238 
3 263 237 238 
3 263 264 239 
3 240 214 239 
3 266 267 244 
3 245 219 244 
3 245 268 246 
3 251 226 246 
3 270 249 225 
3 250 271 248 
3 266 243 248 
3 250 249 273 
3 251 274 275 
3 276 253 227 
3 228 253 278 
3 228 277 279 
3 280 255 229 
3 230 255 281 
3 282 257 231 
3 232 257 283 
3 284 259 233 
3 234 259 285 
3 286 261 235 
3 236 261 287 
3 263 262 287 
3 263 288 289 
3 290 265 239 
3 266 291 292 
3 293 268 244 
3 293 269 246 
3 251 269 294 
3 270 295 273 
3 250 272 296 
3 266 271 296 
3 298 272 273 
3 299 300 275 
3 276 252 275 
3 276 302 278 
3 303 277 278 
3 303 304 279 
3 280 254 279 
3 280 306 281 
3 282 256 281 
3 282 308 283 
3 284 258 283 
3 284 310 285 
3 286 260 285 
3 286 312 287 
3 313 288 287 
3 313 314 289 
3 290 264 289 
3 316 317 292 
3 293 267 292 
3 293 318 294 
3 299 274 294 
3 320 297 273 
3 298 321 296 
3 316 291 296 
3 298 297 322 
3 299 323 324 
3 325 301 275 
3 276 301 326 
3 303 302 326 
3 303 327 328 
3 329 305 279 
3 280 305 330 
3 331 307 281 
3 282 307 332 
3 333 309 283 
3 284 309 334 
3 335 311 285 
3 286 311 336 
3 313 312 336 
3 313 337 338 
3 339 315 289 
3 316 340 341 
3 342 318 292 
3 342 319 294 
3 299 319 343 
3 320 344 322 
3 316 321 322 
3 345 346 324 
3 325 300 324 
3 325 348 326 
3 349 327 326 
3 349 350 328 
3 329 304 328 
3 329 352 330 
3 331 306 330 
3 331 354 332 
3 333 308 332 
3 333 356 334 
3 335 310 334 
3 335 358 336 
3 359 337 336 
3 359 360 338 
3 339 314 338 
3 362 363 341 
3 342 317 341 
3 342 364 343 
3 345 323 343 
3 362 340 322 
3 366 347 324 
3 325 347 367 
3 349 348 367 
3 349 368 369 
3 370 351 328 
3 329 351 371 
3 372 353 330 
3 331 353 373 
3 374 355 332 
3 333 355 375 
3 376 357 334 
3 335 357 377 
3 359 358 377 
3 359 378 379 
3 380 361 338 
3 381 364 341 
3 381 365 343 
3 366 382 367 
3 383 368 367 
3 383 384 369 
3 370 350 369 
3 370 386 371 
3 372 352 371 
3 372 388 373 
3 374 354 373 
3 374 390 375 
3 376 356 375 
3 376 392 377 
3 393 378 377 
3 393 394 379 
3 380 360 379 
3 396 385 369 
3 370 385 397 
3 398 387 371 
3 372 387 399 
3 400 389 373 
3 374 389 401 
3 402 391 375 
3 376 391 403 
3 393 392 403 
3 393 404 405 
3 406 395 379 
3 396 407 397 
3 398 386 397 
3 398 409 399 
3 400 388 399 
3 400 411 401 
3 402 390 401 
3 402 413 403 
3 414 404 403 
3 414 415 405 
3 406 394 405 
3 417 408 397 
3 398 408 418 
3 419 410 399 
3 400 410 420 
3 421 412 401 
3 402 412 422 
3 414 413 422 
3 414 423 424 
3 425 416 405 
3 417 426 418 
3 419 409 418 
3 419 428 420 
3 421 411 420 
3 421 423 422 
3 421 430 424 
3 425 415 424 
3 432 427 418 
3 419 427 433 
3 434 429 420 
3 421 429 435 
3 436 431 424 
3 432 437 433 
3 434 428 433 
3 434 438 435 
3 436 430 435 
3 440 438 433 
3 440 439 435 
0 1 
0 3 
0 5 
0 11 
1 2 
1 4 
1 6 
2 3 
2 7 
2 8 
3 9 
3 10 
4 5 
4 12 
4 15 
5 13 
5 14 
6 7 
6 12 
6 16 
7 17 
7 18 
8 9 
8 18 
8 19 
9 20 
9 21 
10 11 
10 21 
11 13 
12 22 
12 23 
13 24 
14 15 
14 24 
14 25 
15 22 
16 17 
16 23 
16 26 
17 27 
17 28 
18 28 
18 29 
19 20 
19 29 
19 30 
20 31 
20 32 
21 32 
22 25 
22 33 
23 33 
23 34 
24 35 
25 35 
25 36 
26 27 
26 34 
26 37 
27 38 
27 39 
28 39 
28 40 
29 40 
29 41 
29 55 
30 31 
30 41 
30 42 
31 43 
31 44 
32 44 
33 36 
33 45 
33 48 
33 61 
34 45 
34 46 
35 47 
36 47 
36 49 
37 38 
37 46 
37 50 
38 51 
38 52 
39 52 
39 53 
40 53 
40 54 
41 56 
41 57 
42 43 
42 56 
42 58 
43 59 
43 60 
44 60 
45 62 
45 63 
46 63 
46 64 
47 65 
48 49 
48 66 
48 68 
49 65 
49 67 
50 51 
50 64 
50 69 
51 70 
51 71 
52 71 
52 72 
53 72 
53 73 
54 55 
54 73 
54 74 
55 57 
55 75 
56 76 
56 77 
57 76 
58 59 
58 77 
58 78 
59 79 
59 80 
60 80 
61 62 
61 66 
61 81 
62 82 
62 83 
63 83 
64 83 
64 84 
65 85 
66 86 
67 68 
67 85 
67 88 
68 86 
68 87 
69 70 
69 84 
69 89 
70 90 
70 91 
71 91 
71 92 
72 92 
72 93 
73 93 
73 94 
74 75 
74 94 
74 95 
75 76 
75 96 
76 97 
77 97 
77 98 
78 79 
78 98 
78 99 
79 100 
79 101 
80 101 
81 82 
81 86 
81 102 
82 103 
82 104 
83 104 
84 104 
84 105 
85 106 
86 107 
87 88 
87 107 
87 109 
88 106 
88 108 
89 90 
89 105 
89 110 
90 111 
90 112 
91 112 
91 113 
92 113 
92 114 
93 114 
93 115 
94 115 
94 116 
95 96 
95 116 
95 117 
96 97 
96 118 
97 119 
98 119 
98 120 
99 100 
99 120 
99 121 
100 122 
100 123 
101 123 
102 103 
102 107 
102 124 
103 125 
103 126 
104 126 
105 126 
105 127 
106 128 
107 129 
108 109 
108 128 
108 131 
109 129 
109 130 
110 111 
110 127 
110 132 
111 133 
111 134 
112 134 
112 135 
113 135 
113 136 
114 136 
114 137 
115 137 
115 138 
116 138 
116 139 
117 118 
117 139 
117 140 
118 119 
118 141 
119 142 
120 142 
120 143 
121 122 
121 143 
121 144 
122 145 
122 146 
123 146 
124 125 
124 129 
124 147 
125 148 
125 149 
126 149 
127 149 
127 150 
128 151 
129 152 
130 131 
130 152 
130 154 
131 151 
131 153 
132 133 
132 150 
132 155 
133 156 
133 157 
134 157 
134 158 
135 158 
135 159 
136 159 
136 160 
137 160 
137 161 
138 161 
138 162 
139 162 
139 163 
140 141 
140 163 
140 164 
141 142 
141 165 
142 166 
143 166 
143 167 
144 145 
144 167 
144 168 
145 169 
145 170 
146 170 
147 148 
147 152 
147 171 
148 172 
148 173 
149 173 
150 173 
150 174 
151 175 
152 176 
153 154 
153 175 
153 178 
154 176 
154 177 
155 156 
155 174 
155 179 
156 180 
156 181 
157 181 
157 182 
158 182 
158 183 
159 183 
159 184 
160 184 
160 185 
161 185 
161 186 
162 186 
162 187 
163 187 
163 188 
164 165 
164 188 
164 189 
165 166 
165 190 
166 191 
167 191 
167 192 
168 169 
168 192 
168 193 
169 194 
170 194 
171 172 
171 176 
171 195 
172 196 
172 197 
173 197 
174 197 
174 198 
175 199 
176 200 
177 178 
177 200 
177 202 
178 199 
178 201 
179 180 
179 198 
179 203 
180 204 
180 205 
181 205 
181 206 
182 206 
182 207 
183 207 
183 208 
184 208 
184 209 
185 209 
185 210 
186 210 
186 211 
187 211 
187 212 
188 212 
188 213 
189 190 
189 213 
189 214 
189 237 
190 191 
190 215 
191 216 
192 216 
192 217 
193 194 
193 217 
195 196 
195 200 
195 218 
196 219 
196 220 
197 220 
198 220 
198 221 
199 222 
200 223 
201 202 
201 222 
201 225 
202 223 
202 224 
203 204 
203 221 
203 226 
204 227 
204 228 
205 228 
205 229 
206 229 
206 230 
207 230 
207 231 
208 231 
208 232 
209 232 
209 233 
210 233 
210 234 
211 234 
211 235 
212 235 
212 236 
213 236 
213 238 
214 215 
214 239 
214 240 
215 216 
215 241 
216 242 
217 242 
218 219 
218 223 
218 243 
219 244 
219 245 
220 245 
221 245 
221 246 
222 247 
223 248 
224 225 
224 248 
224 250 
225 247 
225 249 
226 227 
226 246 
226 251 
227 252 
227 253 
228 253 
228 254 
228 277 
229 254 
229 255 
230 255 
230 256 
231 256 
231 257 
232 257 
232 258 
233 258 
233 259 
234 259 
234 260 
235 260 
235 261 
236 261 
236 262 
237 238 
237 239 
237 263 
238 262 
239 264 
239 265 
240 241 
240 265 
241 242 
243 244 
243 248 
243 266 
244 267 
244 268 
245 268 
246 268 
246 269 
247 270 
248 271 
249 250 
249 270 
249 273 
250 271 
250 272 
251 252 
251 269 
251 274 
252 275 
252 276 
253 276 
253 278 
254 279 
254 280 
255 280 
255 281 
256 281 
256 282 
257 282 
257 283 
258 283 
258 284 
259 284 
259 285 
260 285 
260 286 
261 286 
261 287 
262 263 
262 287 
263 264 
263 288 
264 289 
264 290 
265 290 
266 267 
266 271 
266 291 
267 292 
267 293 
268 293 
269 293 
269 294 
270 295 
271 296 
272 273 
272 296 
272 298 
273 295 
273 297 
274 275 
274 294 
274 299 
275 300 
275 301 
276 301 
276 302 
277 278 
277 279 
277 303 
278 302 
279 304 
279 305 
280 305 
280 306 
281 306 
281 307 
282 307 
282 308 
283 308 
283 309 
284 309 
284 310 
285 310 
285 311 
286 311 
286 312 
287 288 
287 312 
288 289 
288 313 
289 314 
289 315 
290 315 
291 292 
291 296 
291 316 
292 317 
292 318 
293 318 
294 318 
294 319 
295 320 
296 321 
297 298 
297 320 
297 322 
298 321 
299 300 
299 319 
299 323 
300 324 
300 325 
301 325 
301 326 
302 303 
302 326 
303 304 
303 327 
304 328 
304 329 
305 329 
305 330 
306 330 
306 331 
307 331 
307 332 
308 332 
308 333 
309 333 
309 334 
310 334 
310 335 
311 335 
311 336 
312 313 
312 336 
313 314 
313 337 
314 338 
314 339 
315 339 
316 317 
316 321 
316 340 
317 341 
317 342 
318 342 
319 342 
319 343 
320 344 
321 322 
322 340 
322 344 
323 324 
323 343 
323 345 
324 346 
324 347 
325 347 
325 348 
326 327 
326 348 
327 328 
327 349 
328 350 
328 351 
329 351 
329 352 
330 352 
330 353 
331 353 
331 354 
332 354 
332 355 
333 355 
333 356 
334 356 
334 357 
335 357 
335 358 
336 337 
336 358 
337 338 
337 359 
338 360 
338 361 
339 361 
340 341 
340 362 
341 363 
341 364 
342 364 
343 364 
343 365 
344 362 
345 346 
345 365 
346 366 
347 366 
347 367 
348 349 
348 367 
349 350 
349 368 
350 369 
350 370 
351 370 
351 371 
352 371 
352 372 
353 372 
353 373 
354 373 
354 374 
355 374 
355 375 
356 375 
356 376 
357 376 
357 377 
358 359 
358 377 
359 360 
359 378 
360 379 
360 380 
361 380 
362 363 
363 381 
364 381 
365 381 
366 382 
367 368 
367 382 
368 369 
368 383 
369 384 
369 385 
370 385 
370 386 
371 386 
371 387 
372 387 
372 388 
373 388 
373 389 
374 389 
374 390 
375 390 
375 391 
376 391 
376 392 
377 378 
377 392 
378 379 
378 393 
379 394 
379 395 
380 395 
382 383 
383 384 
384 396 
385 396 
385 397 
386 397 
386 398 
387 398 
387 399 
388 399 
388 400 
389 400 
389 401 
390 401 
390 402 
391 402 
391 403 
392 393 
392 403 
393 394 
393 404 
394 405 
394 406 
395 406 
396 407 
397 407 
397 408 
398 408 
398 409 
399 409 
399 410 
400 410 
400 411 
401 411 
401 412 
402 412 
402 413 
403 404 
403 413 
404 405 
404 414 
405 415 
405 416 
406 416 
407 417 
408 417 
408 418 
409 418 
409 419 
410 419 
410 420 
411 420 
411 421 
412 421 
412 422 
413 414 
413 422 
414 415 
414 423 
415 424 
415 425 
416 425 
417 426 
418 426 
418 427 
419 427 
419 428 
420 428 
420 429 
421 423 
421 429 
421 430 
422 423 
423 424 
424 430 
424 431 
425 431 
426 432 
427 432 
427 433 
428 433 
428 434 
429 434 
429 435 
430 435 
430 436 
431 436 
432 437 
433 437 
433 438 
434 438 
435 438 
435 439 
436 439 
437 440 
438 440 
439 440 
