ply
format ascii 1.0
comment VCGLIB generated
element vertex 597
property double x
property double y
property double z
property double nx
property double ny
property double nz
property uchar red
property uchar green
property uchar blue
property uchar alpha
element face 0
property list uchar int vertex_indices
element edge 1146
property int vertex1
property int vertex2
end_header
8.556523805695141 10.71748310552764 0 0 0 1 255 255 255 255 
8.873023805695142 11.84658410552764 0 0 0 1 255 255 255 255 
7.720914805695141 12.21058410552764 0 0 0 1 255 255 255 255 
7.419873805695142 11.00718310552764 0 0 0 1 255 255 255 255 
10.00082380569514 11.49178310552764 0 0 0 1 255 255 255 255 
9.668623805695141 10.42428410552764 0 0 0 1 255 255 255 255 
6.568753805695142 12.57458310552764 0 0 0 1 255 255 255 255 
6.230093805695143 11.25568310552764 0 0 0 1 255 255 255 255 
7.181624805695142 9.837083105527638 0 0 0 1 255 255 255 255 
8.267774805695142 9.597684105527639 0 0 0 1 255 255 255 255 
9.354424805695142 9.353584105527638 0 0 0 1 255 255 255 255 
10.77932480569514 10.14448310552764 0 0 0 1 255 255 255 255 
11.12852480569514 11.13698310552764 0 0 0 1 255 255 255 255 
5.361704805695142 12.98678410552764 0 0 0 1 255 255 255 255 
4.833334805695142 11.39738410552764 0 0 0 1 255 255 255 255 
6.096183805695142 10.03918410552764 0 0 0 1 255 255 255 255 
8.003763805695142 8.490963105527639 0 0 0 1 255 255 255 255 
6.946074805695142 8.711124105527638 0 0 0 1 255 255 255 255 
9.065724805695142 8.280334105527638 0 0 0 1 255 255 255 255 
10.42522480569514 9.127483105527638 0 0 0 1 255 255 255 255 
12.49262380569514 10.85188410552764 0 0 0 1 255 255 255 255 
11.89762380569514 9.895383105527639 0 0 0 1 255 255 255 255 
4.154644805695142 13.39908410552764 0 0 0 1 255 255 255 255 
3.619993805695142 12.09438310552764 0 0 0 1 255 255 255 255 
5.060393805695142 10.12228310552764 0 0 0 1 255 255 255 255 
5.918793805695142 8.911483105527639 0 0 0 1 255 255 255 255 
6.703803805695141 7.602263105527639 0 0 0 1 255 255 255 255 
7.749104805695142 7.396303105527639 0 0 0 1 255 255 255 255 
8.812424805695143 7.207684105527639 0 0 0 1 255 255 255 255 
10.12702480569514 8.096063105527639 0 0 0 1 255 255 255 255 
11.46992380569514 8.938983105527639 0 0 0 1 255 255 255 255 
12.86552480569514 9.658584105527639 0 0 0 1 255 255 255 255 
13.85662480569514 10.56678310552764 0 0 0 1 255 255 255 255 
3.009854805695142 13.74798310552764 0 0 0 1 255 255 255 255 
2.502324805695141 12.56618310552764 0 0 0 1 255 255 255 255 
2.983753805695142 11.00738310552764 0 0 0 1 255 255 255 255 
3.879274805695142 10.48808410552764 0 0 0 1 255 255 255 255 
4.950904805695142 9.082584105527639 0 0 0 1 255 255 255 255 
4.355273805695142 9.958784105527638 0 0 0 1 255 255 255 255 
5.683704805695142 7.818864105527639 0 0 0 1 255 255 255 255 
7.509274805695142 6.308193105527638 0 0 0 1 255 255 255 255 
6.450443805695143 6.507013105527639 0 0 0 1 255 255 255 255 
8.582423805695141 6.134374105527638 0 0 0 1 255 255 255 255 
9.873823805695142 7.048114105527638 0 0 0 1 255 255 255 255 
11.15652480569514 7.948244105527639 0 0 0 1 255 255 255 255 
12.40312480569514 8.792833105527638 0 0 0 1 255 255 255 255 
13.88512380569514 9.750783105527638 0 0 0 1 255 255 255 255 
13.30242480569514 9.379684105527639 0 0 0 1 255 255 255 255 
1.865054805695142 14.09698410552764 0 0 0 1 255 255 255 255 
1.392614805695142 12.96708310552764 0 0 0 1 255 255 255 255 
1.968014805695142 11.44898410552764 0 0 0 1 255 255 255 255 
2.435703805695142 9.970483105527638 0 0 0 1 255 255 255 255 
3.336404805695142 9.574384105527638 0 0 0 1 255 255 255 255 
4.109863805695142 9.223484105527639 0 0 0 1 255 255 255 255 
4.709444805695142 8.030714105527638 0 0 0 1 255 255 255 255 
5.417864805695142 6.723174105527638 0 0 0 1 255 255 255 255 
6.198094805695142 5.416063105527638 0 0 0 1 255 255 255 255 
7.279253805695141 5.226103105527638 0 0 0 1 255 255 255 255 
8.377283805695141 5.062843105527638 0 0 0 1 255 255 255 255 
9.665223805695142 5.992223105527638 0 0 0 1 255 255 255 255 
10.92722380569514 6.929923105527639 0 0 0 1 255 255 255 255 
12.13622480569514 7.855783105527639 0 0 0 1 255 255 255 255 
13.16502480569514 8.734924105527638 0 0 0 1 255 255 255 255 
13.91352480569514 8.934883105527639 0 0 0 1 255 255 255 255 
0.723764805695142 14.46578410552764 0 0 0 1 255 255 255 255 
0.2771248056951421 13.35618410552764 0 0 0 1 255 255 255 255 
0.9136048056951422 11.85338410552764 0 0 0 1 255 255 255 255 
1.459004805695142 10.36848410552764 0 0 0 1 255 255 255 255 
1.953754805695142 8.928983105527639 0 0 0 1 255 255 255 255 
2.890164805695142 8.574783105527638 0 0 0 1 255 255 255 255 
3.790584805695142 8.270124105527639 0 0 0 1 255 255 255 255 
4.414494805695142 6.962664105527638 0 0 0 1 255 255 255 255 
5.136974805695142 5.632864105527639 0 0 0 1 255 255 255 255 
7.062843805695142 4.148893105527638 0 0 0 1 255 255 255 255 
5.949974805695142 4.331334105527638 0 0 0 1 255 255 255 255 
8.188944805695142 3.988763105527639 0 0 0 1 255 255 255 255 
9.483624805695142 4.926183105527638 0 0 0 1 255 255 255 255 
10.74272480569514 5.884634105527638 0 0 0 1 255 255 255 255 
11.94902380569514 6.856223105527638 0 0 0 1 255 255 255 255 
13.03862480569514 7.832443105527639 0 0 0 1 255 255 255 255 
13.92292380569514 7.909454105527638 0 0 0 1 255 255 255 255 
-0.4175151943048578 14.83458510552764 0 0 0 1 255 255 255 255 
-0.8577261943048579 13.75068410552764 0 0 0 1 255 255 255 255 
-0.1667051943048579 12.24758310552764 0 0 0 1 255 255 255 255 
0.4302648056951421 10.75648310552764 0 0 0 1 255 255 255 255 
0.9653748056951421 9.294584105527639 0 0 0 1 255 255 255 255 
1.492874805695142 7.867013105527638 0 0 0 1 255 255 255 255 
2.475703805695142 7.531903105527639 0 0 0 1 255 255 255 255 
3.438903805695142 7.223753105527638 0 0 0 1 255 255 255 255 
4.098534805695142 5.875574105527638 0 0 0 1 255 255 255 255 
4.854273805695142 4.543203105527638 0 0 0 1 255 255 255 255 
5.708574805695142 3.250413105527639 0 0 0 1 255 255 255 255 
6.858013805695142 3.072263105527639 0 0 0 1 255 255 255 255 
8.013654805695142 2.916554105527638 0 0 0 1 255 255 255 255 
9.325624805695142 3.855073105527639 0 0 0 1 255 255 255 255 
10.59592480569514 4.824594105527638 0 0 0 1 255 255 255 255 
11.81392480569514 5.820374105527638 0 0 0 1 255 255 255 255 
12.94672380569514 6.840983105527639 0 0 0 1 255 255 255 255 
13.93232480569514 6.884044105527638 0 0 0 1 255 255 255 255 
-1.662754194304858 15.28538510552764 0 0 0 1 255 255 255 255 
-2.049420194304858 14.17478310552764 0 0 0 1 255 255 255 255 
-1.267215194304858 12.65018410552764 0 0 0 1 255 255 255 255 
-0.6217671943048579 11.14938310552764 0 0 0 1 255 255 255 255 
-0.0523051943048578 9.671384105527638 0 0 0 1 255 255 255 255 
0.490844805695142 8.224773105527639 0 0 0 1 255 255 255 255 
1.052424805695142 6.803733105527638 0 0 0 1 255 255 255 255 
2.066054805695142 6.462763105527639 0 0 0 1 255 255 255 255 
3.079364805695142 6.153574105527638 0 0 0 1 255 255 255 255 
3.778284805695142 4.790713105527638 0 0 0 1 255 255 255 255 
4.573964805695142 3.459253105527639 0 0 0 1 255 255 255 255 
6.658584805695142 2.001143105527639 0 0 0 1 255 255 255 255 
5.472154805695141 2.170363105527639 0 0 0 1 255 255 255 255 
7.842034805695143 1.839963105527638 0 0 0 1 255 255 255 255 
9.176324805695142 2.769413105527638 0 0 0 1 255 255 255 255 
10.46762480569514 3.745043105527639 0 0 0 1 255 255 255 255 
11.70392380569514 4.756633105527638 0 0 0 1 255 255 255 255 
12.86952380569514 5.795544105527639 0 0 0 1 255 255 255 255 
13.92122480569514 5.805274105527639 0 0 0 1 255 255 255 255 
-2.907985194304858 15.73608410552764 0 0 0 1 255 255 255 255 
-3.310215194304858 14.60248310552764 0 0 0 1 255 255 255 255 
-2.386054194304858 13.05998410552764 0 0 0 1 255 255 255 255 
-1.688111194304858 11.55268410552764 0 0 0 1 255 255 255 255 
-1.095523194304858 10.05738410552764 0 0 0 1 255 255 255 255 
-0.5393951943048578 8.590164105527638 0 0 0 1 255 255 255 255 
0.02351480569514219 7.157864105527638 0 0 0 1 255 255 255 255 
0.6197448056951422 5.745403105527639 0 0 0 1 255 255 255 255 
1.668314805695142 5.395834105527639 0 0 0 1 255 255 255 255 
2.717414805695141 5.073864105527639 0 0 0 1 255 255 255 255 
3.458114805695142 3.709454105527639 0 0 0 1 255 255 255 255 
4.288284805695142 2.378324105527638 0 0 0 1 255 255 255 255 
5.226544805695142 1.088363105527638 0 0 0 1 255 255 255 255 
6.466394805695142 0.9334631055276383 0 0 0 1 255 255 255 255 
7.658123805695142 0.7825531055276382 0 0 0 1 255 255 255 255 
9.020324805695141 1.678373105527638 0 0 0 1 255 255 255 255 
10.35062380569514 2.649034105527639 0 0 0 1 255 255 255 255 
11.61602380569514 3.673773105527638 0 0 0 1 255 255 255 255 
12.81022480569514 4.726853105527638 0 0 0 1 255 255 255 255 
13.91022380569514 4.726503105527638 0 0 0 1 255 255 255 255 
-4.232265194304857 16.24818410552764 0 0 0 1 255 255 255 255 
-4.797505194304858 15.04578410552764 0 0 0 1 255 255 255 255 
-3.520035194304858 13.46368410552764 0 0 0 1 255 255 255 255 
-2.762485194304858 11.97588310552764 0 0 0 1 255 255 255 255 
-2.149457194304858 10.46748310552764 0 0 0 1 255 255 255 255 
-1.585317194304858 8.971683105527639 0 0 0 1 255 255 255 255 
-1.013890194304858 7.519223105527638 0 0 0 1 255 255 255 255 
-0.4190851943048579 6.110693105527639 0 0 0 1 255 255 255 255 
0.2061548056951421 4.707113105527639 0 0 0 1 255 255 255 255 
1.276174805695142 4.336683105527639 0 0 0 1 255 255 255 255 
2.362754805695142 4.003573105527638 0 0 0 1 255 255 255 255 
3.136694805695142 2.642463105527638 0 0 0 1 255 255 255 255 
3.980044805695142 1.295883105527638 0 0 0 1 255 255 255 255 
6.279873805695141 -0.1170658944723617 0 0 0 1 255 255 255 255 
4.980574805695142 -0.01244689447236169 0 0 0 1 255 255 255 255 
7.473594805695141 -0.2288928944723617 0 0 0 1 255 255 255 255 
8.829124805695141 0.5794131055276384 0 0 0 1 255 255 255 255 
10.21882480569514 1.513674105527638 0 0 0 1 255 255 255 255 
11.53382380569514 2.563613105527638 0 0 0 1 255 255 255 255 
12.76072380569514 3.633244105527639 0 0 0 1 255 255 255 255 
13.90462380569514 3.619113105527639 0 0 0 1 255 255 255 255 
-5.556545194304858 16.76018510552764 0 0 0 1 255 255 255 255 
-6.076266194304858 16.06678310552764 0 0 0 1 255 255 255 255 
-4.605975194304857 13.78498410552764 0 0 0 1 255 255 255 255 
-3.816525194304858 12.39548310552764 0 0 0 1 255 255 255 255 
-3.198875194304858 10.89998410552764 0 0 0 1 255 255 255 255 
-2.645195194304858 9.374883105527639 0 0 0 1 255 255 255 255 
-2.076818194304858 7.877323105527639 0 0 0 1 255 255 255 255 
-1.464734194304858 6.461914105527638 0 0 0 1 255 255 255 255 
-0.8454021943048579 5.095523105527638 0 0 0 1 255 255 255 255 
-0.2082251943048579 3.687903105527639 0 0 0 1 255 255 255 255 
0.8992548056951419 3.293943105527639 0 0 0 1 255 255 255 255 
2.011484805695142 2.949183105527638 0 0 0 1 255 255 255 255 
2.791544805695142 1.599053105527638 0 0 0 1 255 255 255 255 
3.591124805695141 0.1757331055276383 0 0 0 1 255 255 255 255 
4.769864805695142 -1.166025894472362 0 0 0 1 255 255 255 255 
6.173114805695142 -1.151073894472362 0 0 0 1 255 255 255 255 
7.326183805695141 -1.125031894472362 0 0 0 1 255 255 255 255 
8.552923805695142 -0.4524318944723617 0 0 0 1 255 255 255 255 
10.03542380569514 0.3168931055276383 0 0 0 1 255 255 255 255 
11.45192480569514 1.423264105527638 0 0 0 1 255 255 255 255 
12.71952480569514 2.522163105527639 0 0 0 1 255 255 255 255 
13.89912380569514 2.511724105527639 0 0 0 1 255 255 255 255 
-6.595985194304858 15.37338410552764 0 0 0 1 255 255 255 255 
-5.787045194304858 14.51088310552764 0 0 0 1 255 255 255 255 
-4.818435194304858 12.80778310552764 0 0 0 1 255 255 255 255 
-5.346285194304857 13.83678410552764 0 0 0 1 255 255 255 255 
-4.233225194304858 11.36338410552764 0 0 0 1 255 255 255 255 
-3.702205194304858 9.830883105527638 0 0 0 1 255 255 255 255 
-3.164415194304858 8.265243105527638 0 0 0 1 255 255 255 255 
-2.530632194304858 6.780583105527638 0 0 0 1 255 255 255 255 
-1.855340194304858 5.458734105527639 0 0 0 1 255 255 255 255 
-1.259671194304858 4.131693105527638 0 0 0 1 255 255 255 255 
-0.6279211943048579 2.664393105527639 0 0 0 1 255 255 255 255 
0.5345148056951421 2.265424105527639 0 0 0 1 255 255 255 255 
1.669144805695142 1.931893105527638 0 0 0 1 255 255 255 255 
2.382504805695142 0.6073131055276384 0 0 0 1 255 255 255 255 
3.004994805695142 -1.133486894472362 0 0 0 1 255 255 255 255 
6.237654805695142 -2.194725894472362 0 0 0 1 255 255 255 255 
4.894633805695142 -2.350556894472362 0 0 0 1 255 255 255 255 
7.453923805695142 -2.019075894472361 0 0 0 1 255 255 255 255 
8.163903805695142 -1.102918894472362 0 0 0 1 255 255 255 255 
9.701723805695142 -1.066826894472362 0 0 0 1 255 255 255 255 
11.35492380569514 0.2287731055276383 0 0 0 1 255 255 255 255 
12.67842480569514 1.378114105527638 0 0 0 1 255 255 255 255 
13.89682480569514 1.364274105527638 0 0 0 1 255 255 255 255 
-7.274475194304858 14.50048410552764 0 0 0 1 255 255 255 255 
-6.439966194304859 13.79208310552764 0 0 0 1 255 255 255 255 
-5.676475194304857 13.19358410552764 0 0 0 1 255 255 255 255 
-5.222815194304858 11.83678410552764 0 0 0 1 255 255 255 255 
-4.735495194304858 10.32118410552764 0 0 0 1 255 255 255 255 
-4.249235194304858 8.738533105527639 0 0 0 1 255 255 255 255 
-3.681065194304858 7.078444105527638 0 0 0 1 255 255 255 255 
-2.874635194304858 5.709484105527639 0 0 0 1 255 255 255 255 
-2.201019194304858 4.579544105527638 0 0 0 1 255 255 255 255 
-1.745604194304858 3.193254105527639 0 0 0 1 255 255 255 255 
-1.061265194304858 1.564754105527638 0 0 0 1 255 255 255 255 
0.2288348056951419 1.245034105527638 0 0 0 1 255 255 255 255 
1.339494805695142 0.9987831055276382 0 0 0 1 255 255 255 255 
1.783444805695142 -0.2649218944723617 0 0 0 1 255 255 255 255 
3.414784805695142 -2.559006894472362 0 0 0 1 255 255 255 255 
5.103794805695142 -3.489026894472361 0 0 0 1 255 255 255 255 
6.400804805695142 -3.258746894472361 0 0 0 1 255 255 255 255 
7.628184805695142 -3.035196894472362 0 0 0 1 255 255 255 255 
8.545823805695141 -1.737789894472362 0 0 0 1 255 255 255 255 
11.26672480569514 -1.029732894472362 0 0 0 1 255 255 255 255 
12.64052380569514 0.2079431055276383 0 0 0 1 255 255 255 255 
13.89452480569514 0.2168331055276383 0 0 0 1 255 255 255 255 
-7.952956194304858 13.62748310552764 0 0 0 1 255 255 255 255 
-7.047315194304858 12.94648310552764 0 0 0 1 255 255 255 255 
-6.155435194304858 12.35078410552764 0 0 0 1 255 255 255 255 
-5.741626194304858 10.85248310552764 0 0 0 1 255 255 255 255 
-5.305345194304858 9.275083105527639 0 0 0 1 255 255 255 255 
-4.834575194304858 7.618004105527638 0 0 0 1 255 255 255 255 
-4.168875194304858 5.673073105527639 0 0 0 1 255 255 255 255 
-2.887085194304858 4.937453105527639 0 0 0 1 255 255 255 255 
-2.732535194304858 3.802154105527638 0 0 0 1 255 255 255 255 
-2.302335194304858 2.199853105527639 0 0 0 1 255 255 255 255 
-1.508940194304858 0.1919031055276383 0 0 0 1 255 255 255 255 
0.1118548056951421 0.2272631055276383 0 0 0 1 255 255 255 255 
1.081654805695142 0.2998941055276383 0 0 0 1 255 255 255 255 
1.415524805695142 -1.812988894472362 0 0 0 1 255 255 255 255 
0.6512448056951421 -0.7721118944723617 0 0 0 1 255 255 255 255 
1.978084805695142 -2.994175894472361 0 0 0 1 255 255 255 255 
3.763524805695142 -3.765886894472362 0 0 0 1 255 255 255 255 
6.591563805695142 -4.341396894472362 0 0 0 1 255 255 255 255 
5.346254805695142 -4.597256894472362 0 0 0 1 255 255 255 255 
7.813574805695142 -4.100056894472361 0 0 0 1 255 255 255 255 
8.818923805695142 -2.764585894472361 0 0 0 1 255 255 255 255 
10.03532380569514 -2.440465894472362 0 0 0 1 255 255 255 255 
12.61452480569514 -0.9968678944723617 0 0 0 1 255 255 255 255 
11.35752380569514 -2.289316894472361 0 0 0 1 255 255 255 255 
13.89402480569514 -0.9624898944723617 0 0 0 1 255 255 255 255 
-8.617195194304857 12.66668310552764 0 0 0 1 255 255 255 255 
-7.666595194304858 12.02448410552764 0 0 0 1 255 255 255 255 
-6.713335194304858 11.41278410552764 0 0 0 1 255 255 255 255 
-6.325526194304858 9.842884105527638 0 0 0 1 255 255 255 255 
-5.918085194304858 8.210523105527638 0 0 0 1 255 255 255 255 
-5.467205194304858 6.454393105527639 0 0 0 1 255 255 255 255 
-3.544195194304858 4.530263105527639 0 0 0 1 255 255 255 255 
-3.383135194304858 2.924734105527639 0 0 0 1 255 255 255 255 
-2.975345194304858 1.147013105527638 0 0 0 1 255 255 255 255 
-0.717255194304858 -1.195542894472362 0 0 0 1 255 255 255 255 
0.01292480569514209 -2.352596894472362 0 0 0 1 255 255 255 255 
0.6302538056951421 -3.475475894472361 0 0 0 1 255 255 255 255 
2.434004805695142 -4.141375894472361 0 0 0 1 255 255 255 255 
4.083883805695142 -4.897476894472361 0 0 0 1 255 255 255 255 
5.601704805695142 -5.695266894472361 0 0 0 1 255 255 255 255 
6.805433805695142 -5.425176894472362 0 0 0 1 255 255 255 255 
8.000134805695142 -5.188085894472361 0 0 0 1 255 255 255 255 
9.015424805695142 -3.868496894472361 0 0 0 1 255 255 255 255 
10.22482380569514 -3.641515894472362 0 0 0 1 255 255 255 255 
12.64222480569514 -2.205766894472362 0 0 0 1 255 255 255 255 
11.46032380569514 -3.494245894472361 0 0 0 1 255 255 255 255 
13.89352380569514 -2.141807894472362 0 0 0 1 255 255 255 255 
-9.281435194304859 11.70578310552764 0 0 0 1 255 255 255 255 
-8.305486194304857 11.07058310552764 0 0 0 1 255 255 255 255 
-7.323185194304858 10.44568410552764 0 0 0 1 255 255 255 255 
-6.956255194304858 8.830984105527639 0 0 0 1 255 255 255 255 
-6.580285194304858 7.150333105527639 0 0 0 1 255 255 255 255 
-5.216485194304858 4.602334105527638 0 0 0 1 255 255 255 255 
-6.266176194304858 5.397503105527639 0 0 0 1 255 255 255 255 
-4.329815194304858 3.714233105527638 0 0 0 1 255 255 255 255 
-4.121515194304858 1.990203105527638 0 0 0 1 255 255 255 255 
-2.879675194304858 -0.7487878944723616 0 0 0 1 255 255 255 255 
-3.945955194304858 0.2137131055276383 0 0 0 1 255 255 255 255 
-2.025714194304858 -1.854605894472362 0 0 0 1 255 255 255 255 
-1.280553194304858 -2.936855894472362 0 0 0 1 255 255 255 255 
-0.6337111943048579 -4.015616894472362 0 0 0 1 255 255 255 255 
1.155124805695142 -4.586906894472362 0 0 0 1 255 255 255 255 
2.834744805695142 -5.260665894472361 0 0 0 1 255 255 255 255 
4.397904805695142 -6.003476894472361 0 0 0 1 255 255 255 255 
7.040074805695141 -6.515516894472362 0 0 0 1 255 255 255 255 
5.875114805695142 -6.789205894472362 0 0 0 1 255 255 255 255 
8.202434805695141 -6.273416894472361 0 0 0 1 255 255 255 255 
9.185723805695142 -4.969615894472361 0 0 0 1 255 255 255 255 
10.37012480569514 -4.788256894472362 0 0 0 1 255 255 255 255 
12.68372480569514 -3.395896894472362 0 0 0 1 255 255 255 255 
11.55322480569514 -4.650886894472362 0 0 0 1 255 255 255 255 
13.89602480569514 -3.328216894472361 0 0 0 1 255 255 255 255 
-9.958006194304858 10.77898410552764 0 0 0 1 255 255 255 255 
-8.963065194304857 10.11948310552764 0 0 0 1 255 255 255 255 
-7.964525194304859 9.466383105527639 0 0 0 1 255 255 255 255 
-7.616695194304858 7.821163105527638 0 0 0 1 255 255 255 255 
-7.296575194304858 6.130713105527638 0 0 0 1 255 255 255 255 
-7.047126194304858 4.416043105527638 0 0 0 1 255 255 255 255 
-6.073185194304858 3.633894105527638 0 0 0 1 255 255 255 255 
-5.120015194304858 2.812743105527638 0 0 0 1 255 255 255 255 
-4.967895194304858 1.088954105527638 0 0 0 1 255 255 255 255 
-4.942375194304858 -0.6326398944723617 0 0 0 1 255 255 255 255 
-4.037325194304858 -1.561083894472362 0 0 0 1 255 255 255 255 
-3.217075194304858 -2.554456894472362 0 0 0 1 255 255 255 255 
-2.483037194304858 -3.574006894472361 0 0 0 1 255 255 255 255 
-1.820914194304858 -4.602456894472361 0 0 0 1 255 255 255 255 
-0.06369519430485782 -5.086565894472361 0 0 0 1 255 255 255 255 
1.618584805695142 -5.680776894472362 0 0 0 1 255 255 255 255 
3.207624805695142 -6.360566894472361 0 0 0 1 255 255 255 255 
4.715734805695142 -7.102025894472361 0 0 0 1 255 255 255 255 
6.169553805695142 -7.888636894472362 0 0 0 1 255 255 255 255 
7.300134805695143 -7.607466894472362 0 0 0 1 255 255 255 255 
8.430723805695141 -7.362815894472361 0 0 0 1 255 255 255 255 
9.360124805695142 -6.068456894472361 0 0 0 1 255 255 255 255 
10.50942380569514 -5.897756894472361 0 0 0 1 255 255 255 255 
12.73142480569514 -4.565416894472362 0 0 0 1 255 255 255 255 
11.65312480569514 -5.778096894472362 0 0 0 1 255 255 255 255 
13.89852380569514 -4.514636894472361 0 0 0 1 255 255 255 255 
-10.63458519430486 9.852184105527639 0 0 0 1 255 255 255 255 
-9.629765194304857 9.170784105527639 0 0 0 1 255 255 255 255 
-8.628465194304857 8.493854105527639 0 0 0 1 255 255 255 255 
-8.308296194304857 6.837084105527638 0 0 0 1 255 255 255 255 
-8.031595194304858 5.160133105527638 0 0 0 1 255 255 255 255 
-6.874955194304858 2.717753105527638 0 0 0 1 255 255 255 255 
-7.818216194304858 3.487234105527639 0 0 0 1 255 255 255 255 
-5.938545194304858 1.916433105527638 0 0 0 1 255 255 255 255 
-5.865896194304858 0.2334731055276383 0 0 0 1 255 255 255 255 
-5.107806194304858 -2.328436894472361 0 0 0 1 255 255 255 255 
-5.934495194304859 -1.431492894472362 0 0 0 1 255 255 255 255 
-4.333555194304858 -3.270876894472361 0 0 0 1 255 255 255 255 
-3.613275194304858 -4.241295894472361 0 0 0 1 255 255 255 255 
-2.951145194304858 -5.234916894472361 0 0 0 1 255 255 255 255 
-1.225914194304858 -5.642755894472361 0 0 0 1 255 255 255 255 
0.4453148056951421 -6.158636894472362 0 0 0 1 255 255 255 255 
2.043254805695142 -6.769115894472361 0 0 0 1 255 255 255 255 
3.569994805695142 -7.456215894472361 0 0 0 1 255 255 255 255 
5.044264805695142 -8.203906894472361 0 0 0 1 255 255 255 255 
7.588634805695142 -8.707765894472361 0 0 0 1 255 255 255 255 
6.485574805695142 -8.996935894472362 0 0 0 1 255 255 255 255 
8.688323805695141 -8.450936894472362 0 0 0 1 255 255 255 255 
9.554024805695143 -7.153336894472361 0 0 0 1 255 255 255 255 
10.66842480569514 -6.989106894472362 0 0 0 1 255 255 255 255 
12.78452380569514 -5.703075894472361 0 0 0 1 255 255 255 255 
11.76772380569514 -6.872116894472361 0 0 0 1 255 255 255 255 
13.90762380569514 -5.668436894472362 0 0 0 1 255 255 255 255 
-11.29459619430486 8.926984105527639 0 0 0 1 255 255 255 255 
-10.29926619430486 8.230373105527638 0 0 0 1 255 255 255 255 
-9.303885194304858 7.533463105527638 0 0 0 1 255 255 255 255 
-9.008476194304858 5.880963105527639 0 0 0 1 255 255 255 255 
-8.762625194304858 4.229764105527638 0 0 0 1 255 255 255 255 
-8.583435194304858 2.600663105527639 0 0 0 1 255 255 255 255 
-7.678935194304858 1.842883105527638 0 0 0 1 255 255 255 255 
-6.775125194304858 1.055353105527638 0 0 0 1 255 255 255 255 
-6.781976194304858 -0.5789188944723617 0 0 0 1 255 255 255 255 
-6.922766194304858 -2.198026894472362 0 0 0 1 255 255 255 255 
-6.147685194304858 -3.078396894472362 0 0 0 1 255 255 255 255 
-5.404515194304857 -3.991356894472362 0 0 0 1 255 255 255 255 
-4.702265194304858 -4.933376894472362 0 0 0 1 255 255 255 255 
-4.039835194304858 -5.896245894472361 0 0 0 1 255 255 255 255 
-2.339526194304858 -6.240645894472362 0 0 0 1 255 255 255 255 
-0.6842091943048578 -6.684115894472361 0 0 0 1 255 255 255 255 
0.911324805695142 -7.224736894472361 0 0 0 1 255 255 255 255 
2.445674805695142 -7.852375894472361 0 0 0 1 255 255 255 255 
3.931674805695142 -8.554496894472361 0 0 0 1 255 255 255 255 
5.386754805695142 -9.316575894472361 0 0 0 1 255 255 255 255 
6.822784805695141 -10.11790689447236 0 0 0 1 255 255 255 255 
7.903704805695142 -9.814886894472362 0 0 0 1 255 255 255 255 
8.978124805695142 -9.541416894472361 0 0 0 1 255 255 255 255 
9.779823805695141 -8.232565894472362 0 0 0 1 255 255 255 255 
10.85562380569514 -8.056566894472361 0 0 0 1 255 255 255 255 
12.85152480569514 -6.813816894472361 0 0 0 1 255 255 255 255 
11.91192480569514 -7.933296894472361 0 0 0 1 255 255 255 255 
13.91682480569514 -6.822236894472361 0 0 0 1 255 255 255 255 
-11.95457519430486 8.001834105527639 0 0 0 1 255 255 255 255 
-10.97214619430486 7.299724105527639 0 0 0 1 255 255 255 255 
-9.989646194304859 6.592453105527638 0 0 0 1 255 255 255 255 
-9.717966194304857 4.954653105527639 0 0 0 1 255 255 255 255 
-9.500426194304858 3.335083105527639 0 0 0 1 255 255 255 255 
-8.492605194304858 1.009483105527638 0 0 0 1 255 255 255 255 
-9.357136194304857 1.754024105527638 0 0 0 1 255 255 255 255 
-7.635865194304858 0.2333541055276383 0 0 0 1 255 255 255 255 
-7.716185194304858 -1.353923894472362 0 0 0 1 255 255 255 255 
-7.178475194304858 -3.814766894472362 0 0 0 1 255 255 255 255 
-7.919336194304858 -2.940076894472361 0 0 0 1 255 255 255 255 
-6.459085194304858 -4.715656894472361 0 0 0 1 255 255 255 255 
-5.767325194304858 -5.638505894472361 0 0 0 1 255 255 255 255 
-5.106705194304858 -6.581096894472362 0 0 0 1 255 255 255 255 
-3.419205194304858 -6.875006894472362 0 0 0 1 255 255 255 255 
-1.775758194304858 -7.254216894472362 0 0 0 1 255 255 255 255 
-0.186685194304858 -7.726146894472362 0 0 0 1 255 255 255 255 
1.347204805695142 -8.289916894472361 0 0 0 1 255 255 255 255 
2.836554805695142 -8.939415894472361 0 0 0 1 255 255 255 255 
4.297383805695142 -9.663635894472362 0 0 0 1 255 255 255 255 
5.742324805695142 -10.44382689447236 0 0 0 1 255 255 255 255 
8.244003805695142 -10.92644689447236 0 0 0 1 255 255 255 255 
7.177083805695142 -11.24921689447236 0 0 0 1 255 255 255 255 
9.296924805695141 -10.62904589447236 0 0 0 1 255 255 255 255 
10.03952380569514 -9.301086894472361 0 0 0 1 255 255 255 255 
11.08042480569514 -9.104076894472362 0 0 0 1 255 255 255 255 
12.94172480569514 -7.866956894472361 0 0 0 1 255 255 255 255 
12.09332480569514 -8.956706894472362 0 0 0 1 255 255 255 255 
13.94612380569514 -7.856726894472361 0 0 0 1 255 255 255 255 
-12.63157519430486 7.096953105527638 0 0 0 1 255 255 255 255 
-11.65347619430486 6.384193105527639 0 0 0 1 255 255 255 255 
-10.68038519430486 5.670563105527639 0 0 0 1 255 255 255 255 
-10.43055519430486 4.053663105527638 0 0 0 1 255 255 255 255 
-10.24140519430486 2.471283105527638 0 0 0 1 255 255 255 255 
-10.13498619430486 0.9477131055276382 0 0 0 1 255 255 255 255 
-9.319275194304858 0.2230231055276383 0 0 0 1 255 255 255 255 
-8.518415194304858 -0.5460118944723618 0 0 0 1 255 255 255 255 
-8.673305194304858 -2.091119894472361 0 0 0 1 255 255 255 255 
-8.934655194304858 -3.659236894472361 0 0 0 1 255 255 255 255 
-8.214525194304859 -4.543156894472362 0 0 0 1 255 255 255 255 
-7.510226194304858 -5.440666894472361 0 0 0 1 255 255 255 255 
-6.825835194304858 -6.355026894472362 0 0 0 1 255 255 255 255 
-6.163006194304858 -7.284416894472361 0 0 0 1 255 255 255 255 
-4.476365194304858 -7.538035894472362 0 0 0 1 255 255 255 255 
-2.837555194304858 -7.861306894472362 0 0 0 1 255 255 255 255 
-1.254377194304858 -8.267715894472362 0 0 0 1 255 255 255 255 
0.2748148056951421 -8.765636894472362 0 0 0 1 255 255 255 255 
1.761544805695142 -9.357095894472362 0 0 0 1 255 255 255 255 
3.221704805695142 -10.03653589447236 0 0 0 1 255 255 255 255 
4.668594805695142 -10.78858589447236 0 0 0 1 255 255 255 255 
6.108324805695142 -11.58601589447236 0 0 0 1 255 255 255 255 
7.543003805695141 -12.38541589447236 0 0 0 1 255 255 255 255 
8.607424805695143 -12.03101589447236 0 0 0 1 255 255 255 255 
9.638824805695142 -11.70991589447236 0 0 0 1 255 255 255 255 
10.33602380569514 -10.35698689447236 0 0 0 1 255 255 255 255 
11.34532480569514 -10.12474689447236 0 0 0 1 255 255 255 255 
13.06472380569514 -8.877376894472361 0 0 0 1 255 255 255 255 
12.32682380569514 -9.932065894472361 0 0 0 1 255 255 255 255 
13.97542480569514 -8.891225894472361 0 0 0 1 255 255 255 255 
-13.30857519430486 6.192083105527638 0 0 0 1 255 255 255 255 
-12.33797519430486 5.477483105527639 0 0 0 1 255 255 255 255 
-11.37765619430486 4.766294105527638 0 0 0 1 255 255 255 255 
-11.14867619430486 3.176814105527638 0 0 0 1 255 255 255 255 
-10.97986619430486 1.641144105527638 0 0 0 1 255 255 255 255 
-10.16073619430486 -0.5060918944723617 0 0 0 1 255 255 255 255 
-10.89445619430486 0.1988231055276383 0 0 0 1 255 255 255 255 
-9.420265194304857 -1.275319894472362 0 0 0 1 255 255 255 255 
-9.654006194304857 -2.791935894472362 0 0 0 1 255 255 255 255 
-9.263046194304858 -5.266216894472362 0 0 0 1 255 255 255 255 
-9.968925194304859 -4.367345894472361 0 0 0 1 255 255 255 255 
-8.566746194304857 -6.170356894472362 0 0 0 1 255 255 255 255 
-7.885566194304858 -7.081896894472361 0 0 0 1 255 255 255 255 
-7.219745194304858 -8.003995894472363 0 0 0 1 255 255 255 255 
-5.523045194304858 -8.225006894472362 0 0 0 1 255 255 255 255 
-3.877595194304858 -8.499475894472361 0 0 0 1 255 255 255 255 
-2.293979194304858 -8.843715894472362 0 0 0 1 255 255 255 255 
-0.7701201943048579 -9.274856894472361 0 0 0 1 255 255 255 255 
0.708984805695142 -9.804365894472362 0 0 0 1 255 255 255 255 
2.162494805695142 -10.43271689447236 0 0 0 1 255 255 255 255 
3.605014805695142 -11.14924689447236 0 0 0 1 255 255 255 255 
5.044173805695142 -11.92991689447236 0 0 0 1 255 255 255 255 
6.478563805695142 -12.73981689447236 0 0 0 1 255 255 255 255 
10.67032480569514 -11.38881689447236 0 0 0 1 255 255 255 255 
11.64532480569514 -11.12095689447236 0 0 0 1 255 255 255 255 
13.25322480569514 -9.803426894472361 0 0 0 1 255 255 255 255 
12.62042380569514 -10.85305589447236 0 0 0 1 255 255 255 255 
14.15102480569514 -9.714736894472361 0 0 0 1 255 255 255 255 
-13.97437619430486 5.276993105527638 0 0 0 1 255 255 255 255 
-13.02327519430486 4.575233105527638 0 0 0 1 255 255 255 255 
-12.07817519430486 3.875423105527639 0 0 0 1 255 255 255 255 
-11.86567619430486 2.318563105527638 0 0 0 1 255 255 255 255 
-11.69927619430486 0.8381141055276382 0 0 0 1 255 255 255 255 
-11.60327519430486 -0.4693168944723617 0 0 0 1 255 255 255 255 
-11.00893619430486 -1.145047894472362 0 0 0 1 255 255 255 255 
-10.35958619430486 -1.943489894472362 0 0 0 1 255 255 255 255 
-10.67693519430486 -3.460246894472362 0 0 0 1 255 255 255 255 
-11.02496519430486 -5.076246894472361 0 0 0 1 255 255 255 255 
-10.32134519430486 -5.995726894472361 0 0 0 1 255 255 255 255 
-9.631196194304858 -6.906435894472361 0 0 0 1 255 255 255 255 
-8.952055194304858 -7.820156894472362 0 0 0 1 255 255 255 255 
-8.281485194304858 -8.739146894472361 0 0 0 1 255 255 255 255 
-6.566985194304858 -8.936765894472362 0 0 0 1 255 255 255 255 
-4.903425194304858 -9.172096894472361 0 0 0 1 255 255 255 255 
-3.310135194304858 -9.457555894472362 0 0 0 1 255 255 255 255 
-1.789849194304858 -9.817956894472362 0 0 0 1 255 255 255 255 
-0.322435194304858 -10.27921689447236 0 0 0 1 255 255 255 255 
1.119324805695142 -10.85033689447236 0 0 0 1 255 255 255 255 
2.553464805695142 -11.52321689447236 0 0 0 1 255 255 255 255 
3.986404805695142 -12.27971689447236 0 0 0 1 255 255 255 255 
5.420973805695142 -13.08351589447236 0 0 0 1 255 255 255 255 
13.47352380569514 -10.69565589447236 0 0 0 1 255 255 255 255 
14.32652380569514 -10.53824689447236 0 0 0 1 255 255 255 255 
-14.64017619430486 4.361914105527639 0 0 0 1 255 255 255 255 
-13.71267619430486 3.676213105527638 0 0 0 1 255 255 255 255 
-12.78057619430486 2.997684105527639 0 0 0 1 255 255 255 255 
-12.56677519430486 1.480903105527638 0 0 0 1 255 255 255 255 
-12.35467519430486 0.06293310552763831 0 0 0 1 255 255 255 255 
-11.93037619430486 -1.639929894472362 0 0 0 1 255 255 255 255 
-12.13947619430486 -0.9585818944723616 0 0 0 1 255 255 255 255 
-11.35202619430486 -2.543856894472361 0 0 0 1 255 255 255 255 
-11.73517619430486 -4.131905894472362 0 0 0 1 255 255 255 255 
-11.38388519430486 -6.734936894472361 0 0 0 1 255 255 255 255 
-12.08277619430486 -5.812725894472361 0 0 0 1 255 255 255 255 
-10.70109519430486 -7.652716894472362 0 0 0 1 255 255 255 255 
-10.02590519430486 -8.568975894472361 0 0 0 1 255 255 255 255 
-9.352085194304857 -9.484916894472361 0 0 0 1 255 255 255 255 
-7.618545194304859 -9.665916894472362 0 0 0 1 255 255 255 255 
-5.925675194304858 -9.873916894472362 0 0 0 1 255 255 255 255 
-4.303735194304858 -10.10731689447236 0 0 0 1 255 255 255 255 
-2.775235194304858 -10.39087689447236 0 0 0 1 255 255 255 255 
-1.322922194304858 -10.77452689447236 0 0 0 1 255 255 255 255 
0.09733480569514219 -11.28411689447236 0 0 0 1 255 255 255 255 
1.515544805695142 -11.90921589447236 0 0 0 1 255 255 255 255 
2.939384805695142 -12.62961589447236 0 0 0 1 255 255 255 255 
4.363393805695142 -13.42721589447236 0 0 0 1 255 255 255 255 
-15.34887619430486 3.433434105527638 0 0 0 1 255 255 255 255 
-14.41387519430486 2.777313105527639 0 0 0 1 255 255 255 255 
-13.48027519430486 2.125773105527638 0 0 0 1 255 255 255 255 
-13.23467519430486 0.6458341055276382 0 0 0 1 255 255 255 255 
-12.89027619430486 -0.7521178944723617 0 0 0 1 255 255 255 255 
-13.20227519430486 -1.884853894472362 0 0 0 1 255 255 255 255 
-12.45707619430486 -3.109166894472362 0 0 0 1 255 255 255 255 
-12.79507519430486 -4.865945894472362 0 0 0 1 255 255 255 255 
-13.13537619430486 -6.568285894472361 0 0 0 1 255 255 255 255 
-12.43777519430486 -7.483216894472362 0 0 0 1 255 255 255 255 
-11.77277519430486 -8.405246894472361 0 0 0 1 255 255 255 255 
-11.10772519430486 -9.327276894472362 0 0 0 1 255 255 255 255 
-10.42842619430486 -10.23671589447236 0 0 0 1 255 255 255 255 
-8.679525194304858 -10.40597589447236 0 0 0 1 255 255 255 255 
-6.954975194304859 -10.60416589447236 0 0 0 1 255 255 255 255 
-5.284105194304858 -10.81007589447236 0 0 0 1 255 255 255 255 
-3.723285194304858 -11.01510689447236 0 0 0 1 255 255 255 255 
-2.285739194304858 -11.29551689447236 0 0 0 1 255 255 255 255 
-0.9026661943048579 -11.72911689447236 0 0 0 1 255 255 255 255 
0.4897148056951421 -12.30461689447236 0 0 0 1 255 255 255 255 
1.899974805695142 -12.98401689447236 0 0 0 1 255 255 255 255 
3.320684805695142 -13.74751689447236 0 0 0 1 255 255 255 255 
-16.05757519430486 2.504953105527639 0 0 0 1 255 255 255 255 
-15.11957519430486 1.873024105527638 0 0 0 1 255 255 255 255 
-14.16317519430486 1.262493105527638 0 0 0 1 255 255 255 255 
-13.84377619430486 -0.1987078944723617 0 0 0 1 255 255 255 255 
-14.42917519430486 -1.089311894472362 0 0 0 1 255 255 255 255 
-14.30967519430486 -2.816826894472361 0 0 0 1 255 255 255 255 
-13.52877519430486 -3.863566894472362 0 0 0 1 255 255 255 255 
-13.83287519430486 -5.653366894472361 0 0 0 1 255 255 255 255 
-9.749136194304858 -11.14615689447236 0 0 0 1 255 255 255 255 
-8.006315194304857 -11.33701589447236 0 0 0 1 255 255 255 255 
-6.278975194304858 -11.55361589447236 0 0 0 1 255 255 255 255 
-4.630456194304858 -11.71341589447236 0 0 0 1 255 255 255 255 
-3.174545194304858 -11.84901689447236 0 0 0 1 255 255 255 255 
-1.853696194304858 -12.16951589447236 0 0 0 1 255 255 255 255 
-0.5155651943048578 -12.70051589447236 0 0 0 1 255 255 255 255 
0.8719248056951423 -13.34361689447236 0 0 0 1 255 255 255 255 
2.277973805695142 -14.06791689447236 0 0 0 1 255 255 255 255 
-16.97157619430486 1.424804105527638 0 0 0 1 255 255 255 255 
-15.84057519430486 0.9526631055276382 0 0 0 1 255 255 255 255 
-14.82427619430486 0.4015031055276383 0 0 0 1 255 255 255 255 
-15.21667619430486 -1.860676894472362 0 0 0 1 255 255 255 255 
-15.43627519430486 -0.4007358944723617 0 0 0 1 255 255 255 255 
-15.28087519430486 -3.650356894472361 0 0 0 1 255 255 255 255 
-14.55687519430486 -4.651856894472362 0 0 0 1 255 255 255 255 
-9.065575194304857 -12.06331689447236 0 0 0 1 255 255 255 255 
-7.324675194304858 -12.28711689447236 0 0 0 1 255 255 255 255 
-5.544426194304858 -12.53261589447236 0 0 0 1 255 255 255 255 
-3.957395194304858 -12.51481689447236 0 0 0 1 255 255 255 255 
-2.722155194304858 -12.58721589447236 0 0 0 1 255 255 255 255 
-1.501542194304858 -13.08311689447236 0 0 0 1 255 255 255 255 
-0.1491451943048578 -13.70241589447236 0 0 0 1 255 255 255 255 
1.246284805695142 -14.39571589447236 0 0 0 1 255 255 255 255 
-17.88547419430486 0.3446541055276383 0 0 0 1 255 255 255 255 
-16.44937519430486 0.1048731055276383 0 0 0 1 255 255 255 255 
-16.04427519430486 -1.026991894472362 0 0 0 1 255 255 255 255 
-16.08447519430486 -2.509556894472361 0 0 0 1 255 255 255 255 
-8.382026194304858 -12.98051689447236 0 0 0 1 255 255 255 255 
-6.631175194304858 -13.28311589447236 0 0 0 1 255 255 255 255 
-4.624306194304858 -13.58401689447236 0 0 0 1 255 255 255 255 
-3.370305194304858 -12.91141689447236 0 0 0 1 255 255 255 255 
-2.453290194304858 -13.41901589447236 0 0 0 1 255 255 255 255 
-1.155982194304858 -14.05081589447236 0 0 0 1 255 255 255 255 
0.2146048056951422 -14.72351689447236 0 0 0 1 255 255 255 255 
-17.38677619430486 -0.5120528944723617 0 0 0 1 255 255 255 255 
-16.62647519430486 -0.4766038944723617 0 0 0 1 255 255 255 255 
-16.88807619430486 -1.368760894472362 0 0 0 1 255 255 255 255 
-7.724485194304858 -13.99621589447236 0 0 0 1 255 255 255 255 
-5.919805194304858 -14.32541689447236 0 0 0 1 255 255 255 255 
-3.414835194304858 -13.64211689447236 0 0 0 1 255 255 255 255 
-2.159967194304858 -14.37491689447236 0 0 0 1 255 255 255 255 
-0.8092981943048579 -15.05071689447236 0 0 0 1 255 255 255 255 
-7.066945194304858 -15.01201689447236 0 0 0 1 255 255 255 255 
-4.258855194304858 -14.91871689447236 0 0 0 1 255 255 255 255 
-5.344905194304858 -15.42461589447236 0 0 0 1 255 255 255 255 
-3.175295194304858 -14.65621589447236 0 0 0 1 255 255 255 255 
-1.833198194304858 -15.37781589447236 0 0 0 1 255 255 255 255 
-6.394396194304858 -15.97871589447236 0 0 0 1 255 255 255 255 
-4.798106194304858 -16.47871589447236 0 0 0 1 255 255 255 255 
-3.874365194304858 -16.01211589447236 0 0 0 1 255 255 255 255 
-2.853775194304858 -15.69501689447236 0 0 0 1 255 255 255 255 
-5.721855194304858 -16.94531689447236 0 0 0 1 255 255 255 255 
0 1 
0 3 
0 5 
0 9 
1 2 
1 4 
2 3 
2 6 
3 7 
3 8 
4 5 
4 12 
5 10 
5 11 
6 7 
6 13 
7 14 
7 15 
8 9 
8 15 
8 17 
9 10 
9 16 
10 18 
10 19 
11 12 
11 19 
11 21 
12 20 
13 14 
13 22 
14 23 
14 24 
14 36 
15 24 
15 25 
16 17 
16 18 
16 27 
17 25 
17 26 
18 28 
18 29 
19 29 
19 30 
20 21 
20 32 
21 30 
21 31 
22 23 
22 33 
23 34 
23 35 
24 37 
24 38 
25 37 
25 39 
26 27 
26 39 
26 41 
27 28 
27 40 
28 42 
28 43 
29 43 
29 44 
30 44 
30 45 
31 32 
31 45 
31 47 
32 46 
33 34 
33 48 
34 49 
34 50 
35 36 
35 50 
35 51 
36 38 
36 52 
37 53 
37 54 
38 53 
39 54 
39 55 
40 41 
40 42 
40 57 
41 55 
41 56 
42 58 
42 59 
43 59 
43 60 
44 60 
44 61 
45 61 
45 62 
46 47 
46 63 
47 62 
48 49 
48 64 
49 65 
49 66 
50 66 
50 67 
51 52 
51 67 
51 68 
52 53 
52 69 
53 70 
54 70 
54 71 
55 71 
55 72 
56 57 
56 72 
56 74 
57 58 
57 73 
58 75 
58 76 
59 76 
59 77 
60 77 
60 78 
61 78 
61 79 
62 63 
62 79 
63 80 
64 65 
64 81 
65 82 
65 83 
66 83 
66 84 
67 84 
67 85 
68 69 
68 85 
68 86 
69 70 
69 87 
70 88 
71 88 
71 89 
72 89 
72 90 
73 74 
73 75 
73 92 
74 90 
74 91 
75 93 
75 94 
76 94 
76 95 
77 95 
77 96 
78 96 
78 97 
79 80 
79 97 
80 98 
81 82 
81 99 
82 100 
82 101 
83 101 
83 102 
84 102 
84 103 
85 103 
85 104 
86 87 
86 104 
86 105 
87 88 
87 106 
88 107 
89 107 
89 108 
90 108 
90 109 
91 92 
91 109 
91 111 
92 93 
92 110 
93 112 
93 113 
94 113 
94 114 
95 114 
95 115 
96 115 
96 116 
97 98 
97 116 
98 117 
99 100 
99 118 
100 119 
100 120 
101 120 
101 121 
102 121 
102 122 
103 122 
103 123 
104 123 
104 124 
105 106 
105 124 
105 125 
106 107 
106 126 
107 127 
108 127 
108 128 
109 128 
109 129 
110 111 
110 112 
110 131 
111 129 
111 130 
112 132 
112 133 
113 133 
113 134 
114 134 
114 135 
115 135 
115 136 
116 117 
116 136 
117 137 
118 119 
118 138 
119 139 
119 140 
120 140 
120 141 
121 141 
121 142 
122 142 
122 143 
123 143 
123 144 
124 144 
124 145 
125 126 
125 145 
125 146 
126 127 
126 147 
127 148 
128 148 
128 149 
129 149 
129 150 
130 131 
130 150 
130 152 
131 132 
131 151 
132 153 
132 154 
133 154 
133 155 
134 155 
134 156 
135 156 
135 157 
136 137 
136 157 
137 158 
138 139 
138 159 
139 160 
139 161 
139 182 
140 161 
140 162 
141 162 
141 163 
142 163 
142 164 
143 164 
143 165 
144 165 
144 166 
145 166 
145 167 
146 147 
146 167 
146 168 
147 148 
147 169 
148 170 
149 170 
149 171 
150 171 
150 172 
151 152 
151 153 
151 174 
152 172 
152 173 
153 175 
153 176 
154 176 
154 177 
155 177 
155 178 
156 178 
156 179 
157 158 
157 179 
158 180 
159 160 
160 181 
161 183 
161 184 
162 183 
162 185 
163 185 
163 186 
164 186 
164 187 
165 187 
165 188 
166 188 
166 189 
167 189 
167 190 
168 169 
168 190 
168 191 
169 170 
169 192 
170 193 
171 193 
171 194 
172 194 
172 195 
173 174 
173 195 
173 197 
174 175 
174 196 
175 198 
175 199 
176 199 
176 200 
177 200 
177 201 
178 201 
178 202 
179 180 
179 202 
180 203 
181 182 
181 204 
182 184 
182 205 
183 206 
183 207 
184 206 
185 207 
185 208 
186 208 
186 209 
187 209 
187 210 
188 210 
188 211 
189 211 
189 212 
190 212 
190 213 
191 192 
191 213 
191 214 
192 193 
192 215 
193 216 
194 216 
194 217 
195 217 
195 218 
195 239 
196 197 
196 198 
196 220 
197 218 
197 219 
198 221 
198 222 
199 222 
200 222 
200 223 
200 247 
201 223 
201 224 
202 203 
202 224 
203 225 
204 205 
204 226 
205 206 
205 227 
206 228 
207 228 
207 229 
208 229 
208 230 
209 230 
209 231 
210 231 
210 232 
211 232 
211 233 
212 233 
212 234 
213 234 
213 235 
214 215 
214 235 
214 236 
215 216 
215 237 
216 238 
217 238 
217 240 
218 241 
218 242 
219 220 
219 242 
219 244 
220 221 
220 243 
221 245 
221 246 
222 246 
223 248 
223 249 
224 225 
224 248 
225 250 
226 227 
226 251 
227 228 
227 252 
228 253 
229 253 
229 254 
230 254 
230 255 
231 255 
231 256 
232 256 
232 257 
232 278 
233 257 
234 257 
234 258 
235 258 
235 259 
236 237 
236 259 
236 260 
236 282 
237 238 
237 240 
239 240 
239 241 
239 261 
240 260 
241 262 
241 263 
242 263 
242 264 
243 244 
243 245 
243 266 
244 264 
244 265 
245 267 
245 268 
246 247 
246 268 
247 249 
247 269 
248 250 
248 270 
249 270 
249 271 
250 272 
251 252 
251 273 
252 253 
252 274 
253 275 
254 275 
254 276 
255 276 
255 277 
256 277 
256 279 
257 280 
258 280 
258 281 
259 281 
259 283 
260 261 
260 284 
261 262 
261 285 
262 286 
262 287 
263 287 
263 288 
264 288 
264 289 
265 266 
265 289 
265 291 
266 267 
266 290 
267 292 
267 293 
268 269 
268 293 
269 271 
269 294 
270 272 
270 295 
271 295 
271 296 
272 297 
273 274 
273 298 
274 275 
274 299 
275 300 
276 300 
276 301 
277 301 
277 302 
278 279 
278 280 
278 304 
279 302 
279 303 
280 305 
281 305 
281 306 
282 283 
282 284 
282 308 
283 306 
283 307 
284 285 
284 309 
285 286 
285 310 
286 311 
286 312 
287 312 
287 313 
288 313 
288 314 
289 314 
289 315 
290 291 
290 292 
290 317 
291 315 
291 316 
292 318 
292 319 
293 294 
293 319 
294 296 
294 320 
295 297 
295 321 
296 321 
296 322 
297 323 
298 299 
298 324 
299 300 
299 325 
300 326 
301 326 
301 327 
302 327 
302 328 
303 304 
303 328 
303 330 
304 305 
304 329 
305 331 
306 331 
306 332 
307 308 
307 332 
307 334 
308 309 
308 333 
309 310 
309 335 
310 311 
310 336 
311 337 
311 338 
312 338 
312 339 
313 339 
313 340 
314 340 
314 341 
315 341 
315 342 
316 317 
316 342 
316 344 
317 318 
317 343 
318 345 
318 346 
319 320 
319 346 
320 322 
320 347 
321 323 
321 348 
322 348 
322 349 
323 350 
324 325 
324 351 
325 326 
325 352 
326 353 
327 353 
327 354 
328 354 
328 355 
329 330 
329 331 
329 357 
330 355 
330 356 
331 358 
332 358 
332 359 
333 334 
333 335 
333 361 
334 359 
334 360 
335 336 
335 362 
336 337 
336 363 
337 364 
337 365 
338 365 
338 366 
339 366 
339 367 
340 367 
340 368 
341 368 
341 369 
342 369 
342 370 
343 344 
343 345 
343 372 
344 370 
344 371 
345 373 
345 374 
346 347 
346 374 
347 349 
347 375 
348 350 
348 376 
349 376 
349 377 
350 378 
351 352 
351 379 
352 353 
352 380 
353 381 
354 381 
354 382 
355 382 
355 383 
356 357 
356 383 
356 385 
357 358 
357 384 
358 386 
359 386 
359 387 
360 361 
360 387 
360 389 
361 362 
361 388 
362 363 
362 390 
363 364 
363 391 
364 392 
364 393 
365 393 
365 394 
366 394 
366 395 
367 395 
367 396 
368 396 
368 397 
369 397 
369 398 
370 398 
370 399 
371 372 
371 399 
371 401 
372 373 
372 400 
373 402 
373 403 
374 375 
374 403 
375 377 
375 404 
376 378 
376 405 
377 405 
377 406 
378 407 
379 380 
379 408 
380 381 
380 409 
381 410 
382 410 
382 411 
383 411 
383 412 
384 385 
384 386 
384 414 
385 412 
385 413 
386 415 
387 415 
387 416 
388 389 
388 390 
388 418 
389 416 
389 417 
390 391 
390 419 
391 392 
391 420 
392 421 
392 422 
393 422 
393 423 
394 423 
394 424 
395 424 
395 425 
396 425 
396 426 
397 426 
397 427 
398 427 
398 428 
399 428 
399 429 
400 401 
400 402 
400 431 
401 429 
401 430 
402 432 
402 433 
403 404 
403 433 
404 406 
404 434 
405 407 
405 435 
406 435 
406 436 
407 437 
408 409 
408 438 
409 410 
409 439 
410 440 
411 440 
411 441 
412 441 
412 442 
413 414 
413 442 
413 444 
414 415 
414 443 
415 445 
416 445 
416 446 
417 418 
417 446 
417 448 
418 419 
418 447 
419 420 
419 449 
420 421 
420 450 
421 451 
421 452 
422 452 
422 453 
423 453 
423 454 
424 454 
424 455 
425 455 
425 456 
426 456 
426 457 
427 457 
427 458 
428 458 
428 459 
429 459 
429 460 
430 431 
430 460 
431 432 
432 461 
433 434 
433 461 
434 436 
434 462 
435 437 
435 463 
436 463 
436 464 
437 465 
438 439 
438 466 
439 440 
439 467 
440 468 
441 468 
441 469 
442 469 
442 470 
443 444 
443 445 
443 472 
444 470 
444 471 
445 473 
446 473 
446 474 
447 448 
447 449 
447 476 
448 474 
448 475 
449 450 
449 477 
450 451 
450 478 
451 479 
451 480 
452 480 
452 481 
453 481 
453 482 
454 482 
454 483 
455 483 
455 484 
456 484 
456 485 
457 485 
457 486 
458 486 
458 487 
459 487 
459 488 
460 488 
461 462 
462 464 
463 465 
463 489 
464 489 
465 490 
466 467 
466 491 
467 468 
467 492 
468 493 
469 493 
469 494 
470 494 
470 495 
471 472 
471 495 
471 497 
472 473 
472 496 
473 498 
474 498 
474 499 
475 476 
475 499 
475 501 
476 477 
476 500 
477 478 
477 502 
478 479 
478 503 
479 504 
479 505 
480 505 
480 506 
481 506 
481 507 
482 507 
482 508 
483 508 
483 509 
484 509 
484 510 
485 510 
485 511 
486 511 
486 512 
487 512 
487 513 
488 513 
489 490 
491 492 
491 514 
492 493 
492 515 
493 516 
494 516 
494 517 
495 517 
495 518 
496 497 
496 498 
496 519 
497 518 
498 520 
499 520 
499 521 
500 501 
500 502 
500 523 
501 521 
501 522 
502 503 
502 524 
503 504 
503 525 
504 526 
504 527 
505 527 
505 528 
506 528 
506 529 
507 529 
507 530 
508 530 
508 531 
509 531 
509 532 
510 532 
510 533 
511 533 
511 534 
512 534 
512 535 
513 535 
514 515 
514 536 
515 516 
515 537 
516 538 
517 538 
517 539 
518 519 
518 539 
519 520 
519 540 
519 541 
520 542 
521 542 
521 543 
522 523 
522 543 
523 524 
524 525 
525 526 
526 544 
527 544 
527 545 
528 545 
528 546 
529 546 
529 547 
530 547 
530 548 
531 548 
531 549 
532 549 
532 550 
533 550 
533 551 
534 551 
534 552 
535 552 
536 537 
536 553 
537 538 
537 554 
538 555 
539 540 
539 555 
540 556 
540 557 
541 542 
541 556 
541 558 
542 559 
543 559 
544 560 
545 560 
545 561 
546 561 
546 562 
547 562 
547 563 
548 563 
548 564 
549 564 
549 565 
550 565 
550 566 
551 566 
551 567 
552 567 
553 554 
553 568 
554 555 
554 569 
555 557 
556 570 
556 571 
557 569 
557 570 
558 559 
558 571 
560 572 
561 572 
561 573 
562 573 
562 574 
563 574 
563 575 
564 575 
564 576 
565 576 
565 577 
566 577 
566 578 
567 578 
568 569 
568 579 
569 580 
570 580 
570 581 
571 581 
572 582 
573 582 
573 583 
574 583 
574 584 
574 588 
575 584 
576 584 
576 585 
577 585 
577 586 
578 586 
579 580 
579 581 
582 587 
583 587 
583 589 
584 590 
585 590 
585 591 
586 591 
587 592 
588 589 
588 590 
588 594 
589 592 
589 593 
590 595 
591 595 
592 596 
593 594 
593 596 
594 595 
