ply
format ascii 1.0
comment nanoply generated
element vertex 11
property double x
property double y
property double z
property double nx
property double ny
property double nz
element edge 10
property int vertex1
property int vertex2
property list char double beam_dimensions
property list char double beam_material
end_header
-0.50000000203197648 0.00000000000000000 0.00000000000000000 0.00000000000000000 0.00000000000000000 1.00000000000000000
-0.40000000054186036 0.00000000000000000 0.00000000000000000 0.00000000000000000 0.00000000000000000 1.00000000000000000
-0.29999999905174424 0.00000000000000000 0.00000000000000000 0.00000000000000000 0.00000000000000000 1.00000000000000000
-0.19999999011104752 0.00000000000000000 0.00000000000000000 0.00000000000000000 0.00000000000000000 1.00000000000000000
-0.09999999607151200 0.00000000000000000 0.00000000000000000 0.00000000000000000 0.00000000000000000 1.00000000000000000
-0.00000000203197648 0.00000000000000000 0.00000000000000000 0.00000000000000000 0.00000000000000000 1.00000000000000000
0.10000002180988143 0.00000000000000000 0.00000000000000000 0.00000000000000000 0.00000000000000000 1.00000000000000000
0.19999998604709457 0.00000000000000000 0.00000000000000000 0.00000000000000000 0.00000000000000000 1.00000000000000000
0.30000000988895248 0.00000000000000000 0.00000000000000000 0.00000000000000000 0.00000000000000000 1.00000000000000000
0.39999997412616561 0.00000000000000000 0.00000000000000000 0.00000000000000000 0.00000000000000000 1.00000000000000000
0.49999999796802352 0.00000000000000000 0.00000000000000000 0.00000000000000000 0.00000000000000000 1.00000000000000000
0 1 2 0.00000000000000000 0.01500000000000000 2 0.29999999999999999 1000000000.00000000000000000
1 2 2 0.00000000000000000 0.01500000000000000 2 384615384.61538457870483398 0.29999999999999999
2 3 2 0.00000000000000000 0.01500000000000000 2 1000000000.00000000000000000 384615384.61538457870483398
3 4 2 0.00000000000000000 0.01500000000000000 2 0.29999999999999999 1000000000.00000000000000000
4 5 2 0.00000000000000000 0.01500000000000000 2 384615384.61538457870483398 0.29999999999999999
5 6 2 0.00000000000000000 0.01500000000000000 2 1000000000.00000000000000000 384615384.61538457870483398
6 7 2 0.00000000000000000 0.01500000000000000 2 0.29999999999999999 1000000000.00000000000000000
7 8 2 0.00000000000000000 0.01500000000000000 2 384615384.61538457870483398 0.29999999999999999
8 9 2 0.00000000000000000 0.01500000000000000 2 1000000000.00000000000000000 384615384.61538457870483398
9 10 2 0.00000000000000000 0.01500000000000000 2 0.29999999999999999 1000000000.00000000000000000
