ply
format ascii 1.0
comment VCGLIB generated
element vertex 11
property double x
property double y
property double z
property double nx
property double ny
property double nz
property uchar red
property uchar green
property uchar blue
property uchar alpha
element face 0
property list uchar int vertex_indices
element edge 10
property int vertex1
property int vertex2
end_header
-0.5000000020319765 0 0 0 0 1 255 255 255 255 
-0.400140010715599 0 0.005292064629575557 0 0 1 255 255 255 255 
-0.3012765013434212 0 0.02032780989272382 0 0 1 255 255 255 255 
-0.2040750564015664 0 0.0438221776391124 0 0 1 255 255 255 255 
-0.1088973129507348 0 0.07450331741250245 0 0 1 255 255 255 255 
-0.01585360022775102 0 0.1111506804003217 0 0 1 255 255 255 255 
0.07514618277713371 0 0.1526142613332696 0 0 1 255 255 255 255 
0.1643463433593079 0 0.1978196273946542 0 0 1 255 255 255 255 
0.2521056187414903 0 0.2457625877643686 0 0 1 255 255 255 255 
0.3388624839391445 0 0.2954964820544821 0 0 1 255 255 255 255 
0.4251060439016653 0 0.3461154321267386 0 0 1 255 255 255 255 
0 1 
1 2 
2 3 
3 4 
4 5 
5 6 
6 7 
7 8 
8 9 
9 10 
